<svg width="18" height="16" viewBox="0 0 18 16" fill="none" xmlns="http://www.w3.org/2000/svg">
<g clip-path="url(#clip0_4369_4540)">
<path d="M13.5 12.5C14.7426 12.5 15.75 11.4926 15.75 10.25C15.75 9.00736 14.7426 8 13.5 8C12.2574 8 11.25 9.00736 11.25 10.25C11.25 11.4926 12.2574 12.5 13.5 12.5Z" stroke="#FF6262" stroke-width="1.5" stroke-linecap="round" stroke-linejoin="round"/>
<path d="M6.75 7.25C8.40685 7.25 9.75 5.90685 9.75 4.25C9.75 2.59315 8.40685 1.25 6.75 1.25C5.09315 1.25 3.75 2.59315 3.75 4.25C3.75 5.90685 5.09315 7.25 6.75 7.25Z" stroke="#FF6262" stroke-width="1.5" stroke-linecap="round" stroke-linejoin="round"/>
<path d="M7.5 10.2506H4.5C3.70435 10.2506 2.94129 10.5667 2.37868 11.1293C1.81607 11.6919 1.5 12.4549 1.5 13.2506V14.7506M16.275 11.3006L15.6 11.0756M11.4 9.42559L10.725 9.20059M12.45 13.0256L12.675 12.3506M14.325 8.15059L14.55 7.47559M14.7 13.0256L14.4 12.2756M12.6 8.22559L12.3 7.47559M10.725 11.4506L11.475 11.1506M15.525 9.35059L16.275 9.05059" stroke="#FF6262" stroke-width="1.5" stroke-linecap="round" stroke-linejoin="round"/>
</g>
<defs>
<clipPath id="clip0_4369_4540">
<rect width="18" height="16" fill="white"/>
</clipPath>
</defs>
</svg>
