<svg width="18" height="16" viewBox="0 0 18 16" fill="none" xmlns="http://www.w3.org/2000/svg">
<path d="M13.5 12.5C14.7426 12.5 15.75 11.4926 15.75 10.25C15.75 9.00736 14.7426 8 13.5 8C12.2574 8 11.25 9.00736 11.25 10.25C11.25 11.4926 12.2574 12.5 13.5 12.5Z" stroke="#E8E8E8" stroke-width="1.5" stroke-linecap="round" stroke-linejoin="round"/>
<path d="M6.75 7.25C8.40685 7.25 9.75 5.90685 9.75 4.25C9.75 2.59315 8.40685 1.25 6.75 1.25C5.09315 1.25 3.75 2.59315 3.75 4.25C3.75 5.90685 5.09315 7.25 6.75 7.25Z" stroke="#E8E8E8" stroke-width="1.5" stroke-linecap="round" stroke-linejoin="round"/>
<path d="M7.5 10.2501H4.5C3.70435 10.2501 2.94129 10.5662 2.37868 11.1288C1.81607 11.6914 1.5 12.4544 1.5 13.2501V14.7501M16.275 11.3001L15.6 11.0751M11.4 9.4251L10.725 9.2001M12.45 13.0251L12.675 12.3501M14.325 8.1501L14.55 7.4751M14.7 13.0251L14.4 12.2751M12.6 8.2251L12.3 7.4751M10.725 11.4501L11.475 11.1501M15.525 9.3501L16.275 9.0501" stroke="#E8E8E8" stroke-width="1.5" stroke-linecap="round" stroke-linejoin="round"/>
</svg>
