<svg
  width="18"
  height="16"
  viewBox="0 0 18 16"
  fill="none"
  xmlns="http://www.w3.org/2000/svg"
>
<path
    d="M8.99983 5.74992V8.74992M8.99983 11.7499H9.00733M16.2973 12.4999L10.2973 1.99992C10.1665 1.76908 9.97678 1.57707 9.74752 1.44348C9.51826 1.30989 9.25767 1.2395 8.99232 1.2395C8.72698 1.2395 8.46639 1.30989 8.23713 1.44348C8.00787 1.57707 7.81815 1.76908 7.68733 1.99992L1.68733 12.4999C1.55509 12.7289 1.48575 12.9889 1.48633 13.2533C1.48692 13.5178 1.55741 13.7774 1.69066 14.0058C1.82391 14.2342 2.01519 14.4234 2.2451 14.554C2.47501 14.6847 2.73538 14.7523 2.99983 14.7499H14.9998C15.263 14.7497 15.5215 14.6801 15.7493 14.5484C15.9771 14.4166 16.1662 14.2272 16.2977 13.9993C16.4292 13.7713 16.4984 13.5127 16.4983 13.2495C16.4982 12.9864 16.4289 12.7278 16.2973 12.4999Z"
    stroke="#FF6262"
    stroke-width="1.5"
    stroke-linecap="round"
    stroke-linejoin="round"
  />
</svg>
