<svg width="31" height="32" viewBox="0 0 31 32" fill="none" xmlns="http://www.w3.org/2000/svg">
<path d="M6.4375 0.0876063C6.14375 0.181356 5.68125 0.531356 5.54375 0.762606C5.49375 0.856356 5.45625 1.33136 5.4375 2.18136L5.40625 3.46261L3.78125 3.49386C2.00625 3.53136 1.90625 3.55011 1.3 3.93761C0.69375 4.33136 0.2 5.06886 0.0625 5.80011C0.01875 6.01886 0 10.0439 0 17.5501C0 27.3751 0.0125 29.0251 0.09375 29.4001C0.2875 30.3251 0.8625 31.1751 1.56875 31.6001C2.275 32.0189 1.31875 31.9939 15.4375 31.9939C29.5563 31.9939 28.6 32.0189 29.3063 31.6001C30.0125 31.1751 30.5875 30.3251 30.7813 29.4001C30.9188 28.7626 30.9188 6.36886 30.7875 5.73761C30.5813 4.76886 29.925 4.00011 29 3.63761C28.7688 3.55011 28.4313 3.52511 27.0938 3.49386L25.4688 3.46261L25.4375 2.18136C25.4188 1.33136 25.3813 0.856356 25.3313 0.762606C25.1875 0.512606 24.725 0.175106 24.3938 0.0813563C24.1313 0.00635633 23.7688 -0.0123937 22.55 0.00635633C21.125 0.0251063 21.0125 0.0313563 20.775 0.162606C20.45 0.337606 20.2125 0.612606 20.125 0.918856C20.0938 1.04386 20.0625 1.67511 20.0625 2.31886V3.49386H15.4375H10.8125V2.31886C10.8125 1.67511 10.7813 1.04386 10.75 0.918856C10.6625 0.612606 10.425 0.337606 10.1 0.162606C9.85625 0.0313563 9.75625 0.0251063 8.28125 0.0126063C7.06875 0.000106335 6.65625 0.0188563 6.4375 0.0876063ZM9.25 3.68136V5.80636L8.175 5.79386L7.09375 5.77511L7.075 3.66261L7.0625 1.55636H8.15625H9.25V3.68136ZM23.925 3.66261L23.9063 5.77511H22.7188H21.5313L21.5125 3.66261L21.5 1.55636H22.7188H23.9375L23.925 3.66261ZM5.4375 5.65011C5.46875 6.33761 5.54375 6.52511 5.8875 6.84386C6.33125 7.26261 6.375 7.27511 8.0875 7.29386C9.8875 7.31886 10.025 7.28761 10.425 6.83761C10.7313 6.49386 10.8125 6.21261 10.8125 5.53136V4.99386H15.4375H20.0625V5.53136C20.0625 6.21261 20.1438 6.49386 20.45 6.83761C20.85 7.28761 20.9875 7.31886 22.7875 7.29386C24.5 7.27511 24.5438 7.26261 24.9875 6.84386C25.3313 6.52511 25.4063 6.33761 25.4375 5.65011L25.4688 5.02511L26.8 5.00636C28.2813 4.98761 28.5125 5.02511 28.8563 5.32511C29.3063 5.72511 29.3125 5.73761 29.3125 8.41261V10.8064H15.4375H1.5625V8.41261C1.5625 5.76886 1.56875 5.73761 1.9875 5.35011C2.325 5.03136 2.525 4.99386 4.03125 5.01261L5.40625 5.02511L5.4375 5.65011ZM29.3 20.7876C29.2813 28.7626 29.275 29.2876 29.1688 29.5126C29.0188 29.8314 28.6375 30.2439 28.3938 30.3501C28.0938 30.4751 2.78125 30.4751 2.48125 30.3439C2.36875 30.3001 2.1625 30.1314 2.025 29.9751C1.53125 29.4126 1.5625 30.0626 1.5625 20.6751V12.3064H15.4375H29.3125L29.3 20.7876Z" fill="#F3F2F1"/>
<path d="M15.1989 14.0586C15.0838 14.1114 14.9483 14.2038 14.8941 14.2697C14.84 14.3291 14.3523 15.2332 13.8105 16.2758L12.8285 18.163L10.6952 18.4732C9.52357 18.6447 8.48739 18.8229 8.39935 18.8691C8.02009 19.067 7.88464 19.5751 8.10813 19.9513C8.16908 20.0635 8.90051 20.7893 9.73352 21.5614C10.5598 22.3334 11.237 23.0131 11.237 23.0725C11.237 23.1319 11.0677 24.1019 10.8577 25.2303C10.4988 27.1703 10.4853 27.2891 10.5801 27.5135C10.641 27.6454 10.7697 27.8104 10.8713 27.8764C11.2709 28.1271 11.4673 28.0678 13.5126 27.0186C14.5623 26.4841 15.4562 26.0485 15.4969 26.0485C15.5375 26.0485 16.3908 26.4643 17.3932 26.9724C18.3955 27.4871 19.3166 27.9292 19.4385 27.9622C19.9261 28.1008 20.4476 27.718 20.4476 27.2297C20.4476 27.0911 20.285 26.0815 20.0818 24.9993L19.7161 23.0263L20.5695 22.2081C22.845 20.0569 22.9398 19.9579 22.9872 19.7005C23.0482 19.397 22.8856 19.0538 22.6147 18.8955C22.4793 18.8229 21.714 18.6777 20.2647 18.4666L18.1178 18.1564L17.129 16.2164C16.4924 14.9626 16.0861 14.2367 15.9777 14.1576C15.7407 13.9926 15.4427 13.953 15.1989 14.0586ZM16.208 18.0442C16.594 18.8031 16.9733 19.4762 17.0545 19.5422C17.1629 19.6411 17.5354 19.7137 18.7206 19.8787C19.5671 19.9975 20.2647 20.1096 20.285 20.1294C20.3053 20.1426 19.838 20.6112 19.2488 21.1654C18.6596 21.7197 18.1449 22.2344 18.0975 22.3136C17.9688 22.5248 17.9891 22.7821 18.2465 24.2801C18.382 25.0455 18.4768 25.679 18.47 25.6856C18.4564 25.6988 17.8537 25.3887 17.129 25.0059C16.0116 24.412 15.761 24.2999 15.5037 24.2999C15.2463 24.2999 15.0025 24.4054 13.8647 24.9993C13.1265 25.3887 12.5238 25.6724 12.5238 25.6262C12.5238 25.5866 12.6321 24.8938 12.7676 24.0887C12.9843 22.8151 13.0046 22.5974 12.9301 22.4192C12.8827 22.307 12.3409 21.7461 11.7314 21.172C10.6681 20.1624 10.6275 20.1228 10.8103 20.0833C10.9119 20.0635 11.5959 19.9711 12.3206 19.8721C13.0453 19.7797 13.7225 19.6543 13.8309 19.6015C13.9799 19.529 14.1695 19.2056 14.7451 18.097C15.1447 17.3184 15.4766 16.6783 15.4833 16.6783C15.4969 16.6783 15.822 17.292 16.208 18.0442Z" fill="#F3F2F1"/>
</svg>
