<svg width="295" height="310" viewBox="0 0 295 310" fill="none" xmlns="http://www.w3.org/2000/svg">
<path fill-rule="evenodd" clip-rule="evenodd" d="M84.2769 0C92.0343 0 98.323 6.30871 98.323 14.0909V28.1818H182.6V14.0909C182.6 6.30871 188.889 0 196.646 0C204.403 0 210.692 6.30871 210.692 14.0909V28.1818H238.784C249.96 28.1818 260.678 32.6355 268.581 40.5632C276.483 48.4909 280.923 59.2431 280.923 70.4545V126.818C280.923 134.6 274.634 140.909 266.877 140.909H28.0923V267.727C28.0923 271.464 29.5721 275.048 32.2063 277.691C34.8405 280.334 38.4132 281.818 42.1384 281.818H140.461C148.219 281.818 154.508 288.127 154.508 295.909C154.508 303.691 148.219 310 140.461 310H42.1384C30.9626 310 20.2445 305.546 12.3421 297.619C4.43957 289.691 0 278.939 0 267.727V70.4545C0 59.2431 4.43957 48.4909 12.3421 40.5632C20.2445 32.6355 30.9626 28.1818 42.1384 28.1818H70.2307V14.0909C70.2307 6.30871 76.5194 0 84.2769 0ZM70.2307 56.3636H42.1384C38.4132 56.3636 34.8405 57.8482 32.2063 60.4908C29.5721 63.1333 28.0923 66.7174 28.0923 70.4545V112.727H252.831V70.4545C252.831 66.7174 251.351 63.1333 248.717 60.4908C246.082 57.8482 242.51 56.3636 238.784 56.3636H210.692V70.4545C210.692 78.2367 204.403 84.5455 196.646 84.5455C188.889 84.5455 182.6 78.2367 182.6 70.4545V56.3636H98.323V70.4545C98.323 78.2367 92.0343 84.5455 84.2769 84.5455C76.5194 84.5455 70.2307 78.2367 70.2307 70.4545V56.3636ZM228.413 172.675C237.183 169.025 246.833 168.055 256.152 169.89C265.504 171.731 274.102 176.313 280.858 183.057C281.309 183.508 281.727 183.987 282.11 184.489C300.212 203.837 299.536 234.282 278.255 255.809L278.144 255.92L227.578 305.942C222.103 311.358 213.306 311.352 207.839 305.929L157.316 255.809C135.626 233.869 135.13 202.525 154.576 183.195C158.966 178.798 164.149 175.141 170.283 172.666C179.077 169.034 188.746 168.094 198.073 169.965C205.204 171.396 211.89 174.421 217.648 178.781C220.933 176.298 224.539 174.239 228.413 172.675ZM250.742 197.544C246.843 196.777 242.805 197.187 239.138 198.722L238.944 198.801C236.548 199.763 234.348 201.219 232.423 203.15L227.647 207.941C222.218 213.388 213.435 213.451 207.928 208.084L203.012 203.293L202.851 203.134C200.043 200.308 196.463 198.382 192.564 197.6C188.664 196.817 184.621 197.214 180.946 198.739L180.794 198.802C178.546 199.704 176.459 201.097 174.412 203.15L174.36 203.203C167.152 210.357 165.256 223.78 177.218 235.919L217.729 276.106L258.359 235.913C270.242 223.849 268.345 210.424 261.071 203.203C260.746 202.881 260.439 202.544 260.149 202.195C257.485 199.841 254.24 198.233 250.742 197.544Z" fill="#FF6262"/>
</svg>
