<svg width="120" height="120" viewBox="0 0 120 120" fill="none" xmlns="http://www.w3.org/2000/svg">
<g clip-path="url(#clip0_1436_457)">
<path d="M60 0C26.88 0 0 26.88 0 60C0 93.12 26.88 120 60 120C93.12 120 120 93.12 120 60C120 26.88 93.12 0 60 0ZM60 108C33.54 108 12 86.46 12 60C12 33.54 33.54 12 60 12C86.46 12 108 33.54 108 60C108 86.46 86.46 108 60 108ZM87.54 33.48L48 73.02L32.46 57.54L24 66L48 90L96 42L87.54 33.48Z" fill="#E93C3C"/>
</g>
<defs>
<clipPath id="clip0_1436_457">
<rect width="120" height="120" fill="white"/>
</clipPath>
</defs>
</svg>
