<svg width="16" height="16" viewBox="0 0 16 16" fill="none" xmlns="http://www.w3.org/2000/svg">
<g clip-path="url(#clip0_732_493)">
<path d="M3.5 0.046855C3.35313 0.09373 3.12188 0.26873 3.05313 0.384355C3.02813 0.43123 3.00938 0.66873 3 1.09373L2.98438 1.73435L2.17188 1.74998C1.28438 1.76873 1.23438 1.7781 0.93125 1.97186C0.628125 2.16873 0.38125 2.53748 0.3125 2.9031C0.290625 3.01248 0.28125 5.02498 0.28125 8.77811C0.28125 13.6906 0.2875 14.5156 0.328125 14.7031C0.425 15.1656 0.7125 15.5906 1.06563 15.8031C1.41875 16.0125 0.940625 16 8 16C15.0594 16 14.5813 16.0125 14.9344 15.8031C15.2875 15.5906 15.575 15.1656 15.6719 14.7031C15.7406 14.3844 15.7406 3.18748 15.675 2.87185C15.5719 2.38748 15.2438 2.00311 14.7812 1.82185C14.6656 1.7781 14.4969 1.7656 13.8281 1.74998L13.0156 1.73435L13 1.09373C12.9906 0.66873 12.9719 0.43123 12.9469 0.384355C12.875 0.259355 12.6438 0.0906048 12.4781 0.0437298C12.3469 0.00623035 12.1656 -0.00314522 11.5563 0.00623035C10.8438 0.015605 10.7875 0.0187302 10.6687 0.0843554C10.5063 0.171855 10.3875 0.309355 10.3438 0.46248C10.3281 0.52498 10.3125 0.840605 10.3125 1.16248V1.74998H8H5.6875V1.16248C5.6875 0.840605 5.67188 0.52498 5.65625 0.46248C5.6125 0.309355 5.49375 0.171855 5.33125 0.0843554C5.20937 0.0187302 5.15938 0.015605 4.42188 0.00935459C3.81562 0.00310516 3.60938 0.0124798 3.5 0.046855ZM4.90625 1.84373V2.90623L4.36875 2.89998L3.82812 2.8906L3.81875 1.83436L3.8125 0.78123H4.35938H4.90625V1.84373ZM12.2438 1.83436L12.2344 2.8906H11.6406H11.0469L11.0375 1.83436L11.0312 0.78123H11.6406H12.25L12.2438 1.83436ZM3 2.8281C3.01562 3.17185 3.05313 3.2656 3.225 3.42498C3.44688 3.63435 3.46875 3.6406 4.325 3.64998C5.225 3.66248 5.29375 3.64686 5.49375 3.42185C5.64687 3.24998 5.6875 3.10935 5.6875 2.76873V2.49998H8H10.3125V2.76873C10.3125 3.10935 10.3531 3.24998 10.5063 3.42185C10.7063 3.64686 10.775 3.66248 11.675 3.64998C12.5312 3.6406 12.5531 3.63435 12.775 3.42498C12.9469 3.2656 12.9844 3.17185 13 2.8281L13.0156 2.5156L13.6813 2.50623C14.4219 2.49685 14.5375 2.5156 14.7094 2.6656C14.9344 2.86561 14.9375 2.87185 14.9375 4.20936V5.40623H8H1.0625V4.20936C1.0625 2.88748 1.06563 2.87185 1.275 2.67811C1.44375 2.51873 1.54375 2.49998 2.29688 2.50935L2.98438 2.5156L3 2.8281ZM14.9313 10.3969C14.9219 14.3844 14.9187 14.6469 14.8656 14.7594C14.7906 14.9187 14.6 15.125 14.4781 15.1781C14.3281 15.2406 1.67188 15.2406 1.52188 15.175C1.46563 15.1531 1.3625 15.0687 1.29375 14.9906C1.04688 14.7094 1.0625 15.0344 1.0625 10.3406V6.15623H8H14.9375L14.9313 10.3969Z" fill="#CC151A"/>
<path d="M7.67235 7.19691C7.61923 7.22191 7.55673 7.26566 7.53173 7.29691C7.50673 7.32503 7.28173 7.75316 7.03173 8.24691L6.5786 9.14066L5.59423 9.28753C5.05361 9.36878 4.57548 9.45316 4.53485 9.47503C4.35985 9.56878 4.29735 9.80941 4.40048 9.98753C4.4286 10.0407 4.7661 10.3844 5.15048 10.75C5.53173 11.1157 5.84423 11.4375 5.84423 11.4657C5.84423 11.4938 5.76611 11.9532 5.66923 12.4875C5.50361 13.4063 5.49735 13.4625 5.54111 13.5688C5.56923 13.6313 5.62861 13.7094 5.67548 13.7407C5.85986 13.8594 5.95048 13.8313 6.89423 13.3344C7.3786 13.0813 7.79111 12.875 7.80985 12.875C7.8286 12.875 8.22235 13.0719 8.68485 13.3125C9.14736 13.5563 9.57235 13.7657 9.6286 13.7813C9.8536 13.8469 10.0942 13.6657 10.0942 13.4344C10.0942 13.3688 10.0192 12.8907 9.92548 12.3782L9.75673 11.4438L10.1505 11.0563C11.2005 10.0375 11.2442 9.99066 11.2661 9.86878C11.2942 9.72503 11.2192 9.56253 11.0942 9.48753C11.0317 9.45316 10.6786 9.38441 10.0099 9.28441L9.01923 9.13753L8.56298 8.21878C8.26923 7.62503 8.08173 7.28128 8.03173 7.24378C7.92235 7.16566 7.78485 7.14691 7.67235 7.19691ZM8.13798 9.08441C8.3161 9.44378 8.49111 9.76253 8.5286 9.79378C8.57861 9.84066 8.75048 9.87503 9.29736 9.95316C9.68798 10.0094 10.0099 10.0625 10.0192 10.0719C10.0286 10.0782 9.81298 10.3 9.5411 10.5625C9.26923 10.825 9.03173 11.0688 9.00985 11.1063C8.95048 11.2063 8.95986 11.3282 9.07861 12.0375C9.14111 12.4 9.18485 12.7 9.18173 12.7032C9.17548 12.7094 8.89736 12.5625 8.56298 12.3813C8.04735 12.1 7.93173 12.0469 7.81298 12.0469C7.69423 12.0469 7.58173 12.0969 7.05673 12.3782C6.7161 12.5625 6.43798 12.6969 6.43798 12.675C6.43798 12.6563 6.48798 12.3282 6.55048 11.9469C6.65048 11.3438 6.65985 11.2407 6.62548 11.1563C6.60361 11.1032 6.35361 10.8375 6.07235 10.5657C5.58173 10.0875 5.56298 10.0688 5.64735 10.05C5.69423 10.0407 6.00985 9.99691 6.34423 9.95003C6.6786 9.90628 6.9911 9.84691 7.04111 9.82191C7.10985 9.78753 7.19736 9.63441 7.46298 9.10941C7.64735 8.74066 7.80048 8.43753 7.8036 8.43753C7.80985 8.43753 7.95985 8.72816 8.13798 9.08441Z" fill="#CC151A"/>
</g>
<defs>
<clipPath id="clip0_732_493">
<rect width="16" height="16" fill="white"/>
</clipPath>
</defs>
</svg>
