<svg width="16" height="16" viewBox="0 0 16 16" fill="none" xmlns="http://www.w3.org/2000/svg">
  <path
    d="M8 15.55C4.55 15.55 1.75 12.85 1.75 9.52505C1.75 7.00005 5.1 3.00005 7.075 0.850047C7.325 0.575047 7.65 0.450047 8 0.450047C8.35 0.450047 8.675 0.600047 8.925 0.850047C10.9 3.00005 14.25 7.00005 14.25 9.52505C14.25 12.85 11.45 15.55 8 15.55ZM8.1 1.60005C8.05 1.55005 7.975 1.55005 7.9 1.60005C5.475 4.25005 2.875 7.70005 2.875 9.52505C2.875 12.225 5.175 14.425 8 14.425C10.825 14.425 13.125 12.225 13.125 9.52505C13.125 7.70005 10.525 4.25005 8.1 1.60005Z"
    fill="#CC151A" />
</svg>