<svg width="16" height="16" viewBox="0 0 16 16" fill="none" xmlns="http://www.w3.org/2000/svg">
  <path
    d="M8.0002 14.75C7.6752 14.75 7.3502 14.625 7.1002 14.4C6.5252 13.9 6.0002 13.45 5.5252 13.05C4.1002 11.825 2.8502 10.8 1.9752 9.75C0.950195 8.5 0.450195 7.325 0.450195 6C0.450195 4.725 0.900195 3.525 1.7002 2.65C2.5252 1.75 3.6752 1.25 4.9002 1.25C5.8252 1.25 6.7002 1.55 7.4502 2.125C7.6502 2.275 7.8252 2.425 8.0002 2.625C8.1752 2.45 8.3502 2.275 8.5502 2.125C9.3002 1.55 10.1502 1.25 11.1002 1.25C12.3502 1.25 13.4752 1.75 14.3002 2.65C15.1252 3.525 15.5502 4.725 15.5502 6C15.5502 7.325 15.0752 8.5 14.0252 9.75C13.1502 10.8 11.9002 11.85 10.4752 13.05C10.0002 13.45 9.4502 13.925 8.8752 14.4C8.6502 14.625 8.3252 14.75 8.0002 14.75ZM4.9002 2.375C3.9752 2.375 3.1252 2.75 2.5002 3.4C1.9002 4.075 1.5752 5 1.5752 6C1.5752 7.025 1.9752 8 2.8252 9.025C3.6502 10 4.8502 11.025 6.2252 12.2C6.7002 12.6 7.2502 13.075 7.8252 13.575C7.9252 13.65 8.0752 13.65 8.1752 13.575C8.7502 13.075 9.3002 12.625 9.7752 12.2C11.1752 11 12.3752 10 13.1752 9.025C14.0252 8 14.4252 7.025 14.4252 6C14.4252 5 14.0752 4.075 13.4752 3.425C12.8502 2.75 12.0002 2.375 11.1002 2.375C10.4252 2.375 9.8002 2.6 9.2502 3C9.0252 3.175 8.8252 3.375 8.6252 3.6C8.4752 3.775 8.2502 3.9 8.0002 3.9C7.7502 3.9 7.5502 3.8 7.3752 3.6C7.1752 3.375 6.9752 3.175 6.7502 3C6.2252 2.6 5.6002 2.375 4.9002 2.375Z"
    fill="#CC151A" />
  <g clip-path="url(#clip0_618_69)">
    <path
      d="M8.60013 9.58341C8.23346 9.58341 7.95013 9.36674 7.83346 9.03341L6.3668 4.48341L4.7168 8.26674C4.58346 8.55007 4.30013 8.75007 3.98346 8.75007H3.33346C3.13346 8.75007 2.9668 8.58341 2.9668 8.38341C2.9668 8.18341 3.13346 8.00007 3.33346 8.00007H3.98346C4.00013 8.00007 4.0168 7.98341 4.03346 7.96674L5.68346 4.20007C5.78346 3.91674 6.08346 3.73341 6.40013 3.75007C6.7168 3.75007 7.00013 3.95007 7.10013 4.25007L8.5668 8.80007C8.5668 8.81674 8.58346 8.83341 8.6168 8.83341C8.65013 8.83341 8.6668 8.81674 8.6668 8.80007L9.2668 7.16674C9.38346 6.91674 9.6168 6.73341 9.90013 6.70007H9.93346C10.2001 6.68341 10.4668 6.81674 10.6335 7.06674L10.6501 7.10007L11.3335 8.40007C11.3335 8.41674 11.3668 8.43341 11.3835 8.43341H12.7168C12.9168 8.43341 13.0835 8.60007 13.0835 8.80007C13.0835 9.00007 12.8668 9.16674 12.6668 9.16674H11.3335C11.0335 9.16674 10.7668 9.00007 10.6168 8.73341L9.95013 7.45007C9.95013 7.45007 9.93346 7.45007 9.93346 7.46674L9.35013 9.06674C9.23346 9.38341 8.95013 9.58341 8.60013 9.58341ZM6.3668 4.48341C6.3668 4.50007 6.3668 4.50007 6.3668 4.48341V4.48341Z"
      fill="#CC151A" />
  </g>
  <defs>
    <clipPath id="clip0_618_69">
      <rect width="10.6667" height="10.6667" fill="white" transform="translate(2.66699 1.33337)" />
    </clipPath>
  </defs>
</svg>