<svg width="800" height="574" viewBox="0 0 800 574" fill="none" xmlns="http://www.w3.org/2000/svg">
<path d="M629.945 2.52433C608.947 14.4368 583.589 24.304 561.056 20.5431C525.528 14.6321 433.955 15.0228 373.172 37.1196C312.389 59.215 201.878 128.285 168.728 139.357C135.563 150.398 132.808 194.62 207.4 202.893C282.006 211.195 348.309 164.206 364.884 155.932C381.461 147.631 541.713 172.509 541.713 172.509L592.131 184.932L708.372 342.057C728.767 324.338 769.109 286.735 779.324 258.157C783.039 247.748 788.572 238.182 794.666 229.682L795.944 231.441C823.305 170.284 705.98 -24.31 629.945 2.52433Z" fill="#F3F2F1"/>
<path d="M561.059 207.736L536.63 205.271C504.577 200.307 413.937 187.4 379.898 187.4C378.41 187.4 377.221 187.416 376.334 187.46C374.965 188.243 373.385 189.144 371.837 190.047C347.679 204.111 291.124 237.038 225.241 237.038C218.007 237.038 210.785 236.632 203.748 235.849C193.07 234.661 183.682 232.825 175.379 230.508C183.246 233.953 190.48 238.886 196.693 245.219C206.424 255.177 212.471 267.391 214.863 280.161C220.535 278.641 226.415 277.799 232.432 277.799C250.873 277.799 268.11 285.049 281.001 298.225C293.682 311.191 300.571 328.338 300.376 346.479C300.376 346.658 300.345 346.841 300.345 347.021C318.695 347.08 335.873 354.33 348.718 367.447C361.413 380.413 368.302 397.56 368.107 415.7C368.032 421.957 367.07 428.064 365.385 433.932C378.41 436.654 390.338 443.136 399.874 452.883C426.077 479.672 425.61 522.766 398.837 548.969L385.42 562.085C385.479 562.085 385.555 562.085 385.615 562.085C408.132 560.46 427.115 546.563 432.424 525.624C441.599 532.858 453.151 537.205 465.741 537.205C495.493 537.205 519.62 513.094 519.62 483.327C519.62 480.199 519.288 477.16 518.777 474.18C528.255 482.439 540.602 487.477 554.155 487.477C583.909 487.477 608.035 463.35 608.035 433.599C614.412 436.26 621.405 437.749 628.746 437.749C658.498 437.749 682.624 413.622 682.624 383.871C682.624 361.279 671.57 346.568 645.323 316.183L561.059 207.736Z" fill="#F3F2F1"/>
<path d="M173.001 268.415C159.554 254.683 137.534 254.44 123.801 267.873L74.0884 316.533C60.3556 329.965 60.115 351.986 73.5478 365.719C86.9806 379.451 109.001 379.692 122.735 366.244L172.462 317.6C186.193 304.169 186.434 282.148 173.001 268.415Z" fill="#F3F2F1"/>
<path d="M257.294 321.422C243.861 307.673 221.841 307.433 208.106 320.879L141.803 385.739C128.07 399.186 127.845 421.206 141.278 434.923C154.709 448.672 176.73 448.911 190.478 435.465L256.766 370.606C270.5 357.175 270.741 335.154 257.294 321.422Z" fill="#F3F2F1"/>
<path d="M325.023 390.641C311.592 376.908 289.572 376.652 275.839 390.101L209.536 454.974C195.803 468.405 195.562 490.426 209.009 504.174C222.442 517.891 244.462 518.133 258.197 504.685L324.5 439.826C338.231 426.38 338.455 404.358 325.023 390.641Z" fill="#F3F2F1"/>
<path d="M376.181 476.077C362.734 462.344 340.713 462.088 326.996 475.535L288.323 513.38C274.59 526.811 274.349 548.832 287.782 562.564C301.213 576.297 323.249 576.524 336.982 563.107L375.654 525.263C389.373 511.83 389.613 489.81 376.181 476.077Z" fill="#F3F2F1"/>
<path d="M148.121 224.793C153.356 224.793 158.47 225.456 163.434 226.582C121.664 210.564 114.745 181.264 113.646 170.929C110.698 143.101 128.628 117.757 158.229 107.89C170.143 103.92 201.384 86.8917 231.573 70.437C263.973 52.762 299.531 33.3745 330.471 19.1136C291.271 15.9417 254.542 17.2792 234.912 20.5433C213.807 24.062 190.223 15.6245 170.053 4.76515C94.0167 -22.0833 -23.3067 172.509 4.0542 233.684C9.03233 241.159 13.5011 249.342 16.6448 258.157C21.2917 271.153 32.1808 286.014 44.5917 300.032C46.5323 297.535 48.5933 295.098 50.8948 292.826L100.607 244.168C113.39 231.682 130.251 224.793 148.121 224.793Z" fill="#F3F2F1"/>
</svg>
