<svg width="668" height="652" viewBox="0 0 668 652" fill="none" xmlns="http://www.w3.org/2000/svg">
<path d="M567.333 243.785V457.85C567.333 513.853 567.333 541.857 556.433 563.247C546.847 582.063 531.55 597.363 512.733 606.95C491.34 617.85 463.34 617.85 407.333 617.85H260.667C204.661 617.85 176.659 617.85 155.268 606.95C136.451 597.363 121.153 582.063 111.566 563.247C100.667 541.857 100.667 513.853 100.667 457.85V243.763M634 317.85L452.893 116.648C411.703 70.8888 391.11 48.0094 366.853 39.5628C345.553 32.1441 322.367 32.1457 301.063 39.5677C276.81 48.0177 256.22 70.9004 215.038 116.665L34 317.85M400.667 317.85C400.667 354.667 370.82 384.517 334 384.517C297.18 384.517 267.333 354.667 267.333 317.85C267.333 281.03 297.18 251.182 334 251.182C370.82 251.182 400.667 281.03 400.667 317.85Z" stroke="#F3F2F1" stroke-width="66.6667" stroke-linecap="round" stroke-linejoin="round"/>
</svg>
