<svg width="668" height="652" viewBox="0 0 668 652" fill="none" xmlns="http://www.w3.org/2000/svg">
<path d="M567.333 243.936V458C567.333 514.004 567.333 542.007 556.433 563.397C546.847 582.214 531.55 597.514 512.733 607.1C491.34 618 463.34 618 407.333 618H260.667C204.661 618 176.659 618 155.268 607.1C136.451 597.514 121.153 582.214 111.566 563.397C100.667 542.007 100.667 514.004 100.667 458V243.914M634 318L452.893 116.798C411.703 71.0391 391.11 48.1598 366.853 39.7131C345.553 32.2945 322.367 32.2961 301.063 39.7181C276.81 48.1681 256.22 71.0508 215.038 116.816L34 318M400.667 318C400.667 354.817 370.82 384.667 334 384.667C297.18 384.667 267.333 354.817 267.333 318C267.333 281.18 297.18 251.332 334 251.332C370.82 251.332 400.667 281.18 400.667 318Z" stroke="#FF6262" stroke-width="66.6667" stroke-linecap="round" stroke-linejoin="round"/>
</svg>
