<svg width="12" height="12" viewBox="0 0 12 12" fill="none" xmlns="http://www.w3.org/2000/svg">
  <g clip-path="url(#clip0_728_427)">
    <path
      d="M11.2496 5.58747H6.43086V0.749976C6.43086 0.524976 6.24336 0.318726 5.99961 0.318726C5.77461 0.318726 5.56836 0.506226 5.56836 0.749976V5.58747H0.749609C0.524609 5.58747 0.318359 5.77497 0.318359 6.01872C0.318359 6.24372 0.505859 6.44998 0.749609 6.44998H5.58711V11.25C5.58711 11.475 5.77461 11.6812 6.01836 11.6812C6.24336 11.6812 6.44961 11.4937 6.44961 11.25V6.43122H11.2496C11.4746 6.43122 11.6809 6.24372 11.6809 5.99998C11.6809 5.77497 11.4746 5.58747 11.2496 5.58747Z"
      fill="white" />
  </g>
  <defs>
    <clipPath id="clip0_728_427">
      <rect width="12" height="12" fill="white" />
    </clipPath>
  </defs>
</svg>