<svg width="637" height="491" viewBox="0 0 637 491" fill="none" xmlns="http://www.w3.org/2000/svg">
<path d="M628.597 169.726L564.007 210.442C559.322 213.257 553.784 214.303 548.394 213.392C543.004 212.481 538.118 209.672 534.618 205.474L502.534 165.179V470.695C502.523 475.996 500.412 481.076 496.664 484.825C492.915 488.573 487.835 490.684 482.534 490.695H154.534C149.233 490.684 144.152 488.573 140.404 484.825C136.656 481.076 134.545 475.996 134.534 470.695V164.842L102.155 205.474C98.6567 209.662 93.7784 212.464 88.3981 213.374C83.0178 214.285 77.4891 213.246 72.8074 210.442L8.17582 169.726C6.01586 168.485 4.16927 166.765 2.77798 164.699C1.38668 162.632 0.487735 160.274 0.150232 157.806C-0.18727 155.338 0.0456594 152.825 0.831116 150.461C1.61657 148.097 2.93364 145.944 4.68109 144.168L99.2074 39.2421C110.318 26.8914 123.902 17.0152 139.077 10.2547C154.252 3.49412 170.679 0.000293487 187.292 0H226.66C234.367 17.9793 247.179 33.3022 263.51 44.0701C279.841 54.838 298.972 60.5776 318.534 60.5776C338.095 60.5776 357.226 54.838 373.557 44.0701C389.888 33.3022 402.701 17.9793 410.407 0H449.734C466.356 0.00496049 482.791 3.50488 497.974 10.2726C513.156 17.0404 526.745 26.9247 537.86 39.2842L632.176 144.126C633.92 145.912 635.232 148.073 636.011 150.444C636.79 152.815 637.015 155.333 636.67 157.805C636.324 160.276 635.417 162.636 634.017 164.703C632.618 166.769 630.764 168.488 628.597 169.726Z" fill="#F3F2F1"/>
</svg>
