<svg width="16" height="16" viewBox="0 0 16 16" fill="none" xmlns="http://www.w3.org/2000/svg">
  <g clip-path="url(#clip0_728_292)">
    <path
      d="M15.4004 3.82502L12.1754 0.600024C11.9504 0.375024 11.6004 0.375024 11.3754 0.600024C11.1504 0.825024 11.1504 1.17502 11.3754 1.40002L12.5754 2.60002L11.3504 3.82502L11.1004 3.57502C10.3504 2.82502 9.12539 2.82502 8.37539 3.57502L3.90039 8.10002C3.45039 8.55002 3.27539 9.17502 3.37539 9.77502L2.75039 10.375C2.40039 10.75 2.20039 11.225 2.20039 11.75C2.20039 12.1 2.30039 12.45 2.47539 12.75L0.600391 14.625C0.375391 14.85 0.375391 15.2 0.600391 15.425C0.700391 15.525 0.850391 15.6 1.00039 15.6C1.15039 15.6 1.30039 15.55 1.40039 15.425L3.27539 13.55C3.57539 13.725 3.90039 13.825 4.27539 13.825C4.80039 13.825 5.27539 13.625 5.65039 13.25L6.25039 12.65C6.35039 12.675 6.45039 12.675 6.57539 12.675C7.07539 12.675 7.55039 12.475 7.95039 12.1L12.4754 7.57502C13.2254 6.82502 13.2254 5.60002 12.4754 4.85002L12.2254 4.60002L13.4504 3.37502L14.6504 4.57502C14.7504 4.67502 14.9004 4.75002 15.0504 4.75002C15.2004 4.75002 15.3504 4.70002 15.4504 4.57502C15.6254 4.40002 15.6254 4.02502 15.4004 3.82502ZM3.70039 12.45L3.57539 12.325C3.42539 12.175 3.35039 11.975 3.35039 11.75C3.35039 11.525 3.42539 11.325 3.57539 11.175L3.92539 10.825L5.20039 12.1L4.85039 12.45C4.52539 12.75 4.00039 12.75 3.70039 12.45ZM11.6254 6.80002L7.10039 11.3C6.77539 11.6 6.27539 11.625 5.97539 11.3L4.70039 10.025C4.37539 9.70002 4.37539 9.20002 4.70039 8.90002L9.22539 4.37502C9.55039 4.05002 10.0504 4.05002 10.3504 4.37502L11.6254 5.65002C11.9504 5.97502 11.9504 6.47502 11.6254 6.80002Z"
      fill="#CC151A" />
  </g>
  <defs>
    <clipPath id="clip0_728_292">
      <rect width="16" height="16" fill="white" />
    </clipPath>
  </defs>
</svg>