<svg width="16" height="16" viewBox="0 0 16 16" fill="none" xmlns="http://www.w3.org/2000/svg">
<g clip-path="url(#clip0_2739_2603)">
<mask id="mask0_2739_2603" style="mask-type:luminance" maskUnits="userSpaceOnUse" x="0" y="0" width="16" height="16">
<path d="M16 0H0V16H16V0Z" fill="white"/>
</mask>
<g mask="url(#mask0_2739_2603)">
<path d="M15.4024 3.82539L12.1774 0.600391C11.9524 0.375391 11.6024 0.375391 11.3774 0.600391C11.1524 0.825391 11.1524 1.17539 11.3774 1.40039L12.5774 2.60039L11.3524 3.82539L11.1024 3.57539C10.3524 2.82539 9.12734 2.82539 8.37734 3.57539L3.90234 8.10039C3.45234 8.55039 3.27734 9.17539 3.37734 9.77539L2.75234 10.3754C2.40234 10.7504 2.20234 11.2254 2.20234 11.7504C2.20234 12.1004 2.30234 12.4504 2.47734 12.7504L0.602344 14.6254C0.377344 14.8504 0.377344 15.2004 0.602344 15.4254C0.702344 15.5254 0.852344 15.6004 1.00234 15.6004C1.15234 15.6004 1.30234 15.5504 1.40234 15.4254L3.27734 13.5504C3.57734 13.7254 3.90234 13.8254 4.27734 13.8254C4.80234 13.8254 5.27734 13.6254 5.65234 13.2504L6.25234 12.6504C6.35234 12.6754 6.45234 12.6754 6.57734 12.6754C7.07734 12.6754 7.55234 12.4754 7.95234 12.1004L12.4774 7.57539C13.2274 6.82539 13.2274 5.60039 12.4774 4.85039L12.2274 4.60039L13.4524 3.37539L14.6524 4.57539C14.7524 4.67539 14.9024 4.75039 15.0524 4.75039C15.2024 4.75039 15.3524 4.70039 15.4524 4.57539C15.6274 4.40039 15.6274 4.02539 15.4024 3.82539ZM3.70234 12.4504L3.57734 12.3254C3.42734 12.1754 3.35234 11.9754 3.35234 11.7504C3.35234 11.5254 3.42734 11.3254 3.57734 11.1754L3.92734 10.8254L5.20234 12.1004L4.85234 12.4504C4.52734 12.7504 4.00234 12.7504 3.70234 12.4504ZM11.6274 6.80039L7.10234 11.3004C6.77734 11.6004 6.27734 11.6254 5.97734 11.3004L4.70234 10.0254C4.37734 9.70039 4.37734 9.20039 4.70234 8.90039L9.22734 4.37539C9.55234 4.05039 10.0524 4.05039 10.3524 4.37539L11.6274 5.65039C11.9524 5.97539 11.9524 6.47539 11.6274 6.80039Z" fill="#F2F2F2"/>
</g>
</g>
<defs>
<clipPath id="clip0_2739_2603">
<rect width="16" height="16" fill="white"/>
</clipPath>
</defs>
</svg>
