<svg width="24" height="24" viewBox="0 0 24 24" fill="none" xmlns="http://www.w3.org/2000/svg">
<path fill-rule="evenodd" clip-rule="evenodd" d="M17.7741 0.31952C18.2001 -0.106507 18.8908 -0.106507 19.3168 0.31952L21.4985 2.50118L23.6805 4.68316C24.1065 5.10918 24.1065 5.79991 23.6805 6.22593C23.2545 6.65196 22.5637 6.65196 22.1377 6.22593L20.7273 4.81551L18.9973 6.54545L20.4074 7.95556L21.4987 9.04679C21.9247 9.47282 21.9247 10.1635 21.4987 10.5896C21.0726 11.0156 20.3819 11.0156 19.9559 10.5896L19.6364 10.2701L9.17139 20.735C7.84204 22.0644 5.82422 22.259 4.38371 21.1591L1.8623 23.6805C1.43627 24.1065 0.745546 24.1065 0.31952 23.6805C-0.106507 23.2545 -0.106507 22.5637 0.31952 22.1377L2.85546 19.6018C1.78223 18.1263 1.87106 16.1021 3.28357 14.81L13.7299 4.36364L13.4104 4.04412C12.9844 3.61809 12.9844 2.92736 13.4104 2.50134C13.8365 2.07531 14.5272 2.07531 14.9532 2.50134L17.4545 5.00268L19.1845 3.27273L17.7741 1.8623C17.348 1.43627 17.348 0.745546 17.7741 0.31952ZM15.2727 5.90641L10.2701 10.9091L13.0909 13.7299L18.0936 8.72727L15.2727 5.90641ZM11.5481 15.2727L8.72727 12.4519L4.80775 16.3714C4.79423 16.3849 4.78036 16.3981 4.76614 16.4109C4.18059 16.9379 4.11902 17.849 4.80775 18.5377L5.13401 18.864C5.13435 18.8643 5.13469 18.8646 5.13503 18.865C5.13536 18.8653 5.1357 18.8656 5.13603 18.866L5.4623 19.1922C5.47582 19.2058 5.48898 19.2196 5.50178 19.2339C6.02878 19.8194 6.93988 19.881 7.62861 19.1922L11.5481 15.2727Z" fill="#B2493A"/>
</svg>
