<?xml version="1.0" encoding="UTF-8"?>
<!-- capa_heroi: peace-sign arm (raised) + mirrored default arm (relaxed) -->
<svg xmlns="http://www.w3.org/2000/svg" viewBox="0 0 712 670">
<g transform="translate(495,0)">
<path d="M0 0 C2.77 3.09 4.12 5.83 5.69 9.66 C5.93 10.25 5.93 10.25 7.17 13.21 C8.47 16.7 9.48 20.21 10.5 23.79 C10.83 24.12 11.16 24.45 11.5 24.79 C11.79 23.8 12.08 22.81 12.38 21.79 C16.47 8.61 22.28 -2.51 36.5 -6.21 C49.94 -7.41 57.15 -5.35 65.5 5.79 C71.26 20.19 67.75 35.41 63.5 49.79 C63.31 50.62 63.31 50.62 62.38 54.85 C61.61 58.29 60.61 61.45 59.5 64.79 C56.5 76 56.5 76 56.5 78.79 C58.03 78.72 59.55 78.66 61.12 78.6 C68.78 78.86 72.51 81.06 77.5 86.79 C77.5 87.45 77.5 88.11 77.5 88.79 C78.16 88.79 78.82 88.79 79.5 88.79 C81.25 94.05 80.79 97.94 78.98 103.17 C77.22 109.86 77.29 115.68 77.5 122.54 C77.65 132.35 77.49 141.34 74.5 150.79 C74.18 151.87 73.85 152.95 73.52 154.07 C71.91 159.15 70.29 164.22 67.5 168.79 C66.84 168.79 66.18 168.79 65.5 168.79 C64.84 170.11 64.18 171.43 63.5 172.79 C58.79 180.79 58.79 180.79 56.5 180.79 C55.84 182.11 55.18 183.43 54.5 184.79 C53.97 185.82 53.43 186.86 52.88 187.92 C52.28 189.09 51.68 190.27 51.06 191.47 C50.76 192.05 50.76 192.05 49.25 194.98 C45.59 202.91 44.13 209.61 43.94 218.35 C43.63 227.61 42.84 236.62 41.5 245.79 C41.34 247.07 41.17 248.35 41 249.66 C40.5 252.79 40.5 252.79 39.5 253.79 C39.02 256.72 38.53 259.66 38.1 262.61 C37.49 265.81 36.58 268.71 35.5 271.79 C34.94 273.6 34.39 275.42 33.81 277.29 C31.81 283.31 29.13 288.84 26.21 294.48 C24.79 297.23 23.47 300.03 22.19 302.85 C19.18 308.38 15.62 313.08 11.71 318 C9.5 320.79 9.5 320.79 7.5 323.79 C6.84 323.79 6.18 323.79 5.5 323.79 C4.84 325.11 4.18 326.43 3.5 327.79 C1.41 329.93 -0.74 332.01 -2.94 334.04 C-4.09 335.11 -5.24 336.19 -6.43 337.3 C-9.5 339.79 -9.5 339.79 -12.5 339.79 C-12.5 340.45 -12.5 341.11 -12.5 341.79 C-17.79 345.79 -17.79 345.79 -21.5 345.79 C-21.5 346.45 -21.5 347.11 -21.5 347.79 C-38.81 356.6 -56.08 361.52 -75.5 360.79 C-75.6 362.21 -75.71 363.63 -75.81 365.1 C-76.5 369.79 -76.5 369.79 -79.5 372.79 C-90.58 373.83 -102.7 369.61 -112.5 364.79 C-115.83 363.45 -119.16 362.11 -122.5 360.79 C-123.16 360.46 -123.82 360.13 -124.5 359.79 C-124.5 359.13 -124.5 358.47 -124.5 357.79 C-125.82 357.79 -127.14 357.79 -128.5 357.79 C-128.83 358.45 -129.16 359.11 -129.5 359.79 C-134.5 359.79 -134.5 359.79 -136.5 357.79 C-138.12 340.01 -133.62 321.42 -121.5 307.79 C-118.25 306.79 -118.25 306.79 -115.5 306.79 C-114.5 307.79 -114.5 307.79 -114.5 313.79 C-110.5 315.04 -110.5 315.04 -105.5 315.79 C-104.24 316.12 -102.98 316.45 -101.69 316.79 C-73.26 323.57 -48.76 317.75 -27.31 297.91 C-17.95 287.78 -12.12 275.95 -8.36 262.79 C-7.8 260.83 -7.18 258.88 -6.49 256.95 C-2.1 242.94 3.3 214.26 -5.94 201.29 C-7.41 199.74 -8.93 198.24 -10.5 196.79 C-12.01 195.04 -13.51 193.29 -15 191.54 C-17.71 188.58 -20.4 186 -23.44 183.35 C-43.46 165.79 -67.31 130.56 -63.5 102.79 C-59.92 93.17 -54.94 88.56 -45.5 84.79 C-42.9 84.65 -40.29 84.61 -37.69 84.66 C-37.01 84.67 -37.01 84.67 -33.61 84.71 C-32.58 84.74 -31.56 84.76 -30.5 84.79 C-31.29 80.28 -32.08 75.78 -32.88 71.29 C-33.1 70.02 -33.32 68.75 -33.55 67.44 C-34.66 61.15 -35.87 54.96 -37.5 48.79 C-41.01 32.01 -42.65 13.34 -30.5 -0.21 C-20.5 -8.32 -9.77 -8.66 0 0 Z " fill="#7F070F" transform="translate(136.5,6.21484375)"/>
<path d="M0 0 C2.91 2.04 2.91 2.04 4.91 6.04 C6.23 7.36 7.55 8.68 8.91 10.04 C11.21 14.65 10.54 22.14 8.91 27.04 C8.25 27.37 8.25 27.37 4.91 29.04 C4.25 30.03 3.59 31.02 2.91 32.04 C-4.6 34.54 -12.23 33.66 -19.09 30.04 C-20.68 29.35 -22.27 28.67 -23.91 27.97 C-28.09 26.04 -28.09 26.04 -30.09 24.04 C-31.41 24.04 -32.73 24.04 -34.09 24.04 C-32.91 28.75 -31.83 29.35 -28.03 32.16 C-23.09 35.83 -23.09 35.83 -23.09 38.04 C-20.77 38.74 -18.43 39.4 -16.09 40.04 C-14.51 40.72 -12.92 41.4 -11.28 42.1 C-6.09 44.04 -6.09 44.04 -0.84 44.1 C5.45 45.34 6.15 47.67 8.65 53.27 C9.91 56.04 9.91 56.04 12.91 60.04 C13.6 61.91 14.25 63.81 14.84 65.72 C16.91 71.04 16.91 71.04 20.91 72.04 C20.99 68.58 21.05 65.12 21.09 61.66 C21.13 59.73 21.16 57.81 21.2 55.82 C20.81 48.05 18.67 41.85 15.66 34.72 C13.91 30.04 13.91 30.04 14.91 25.04 C14.97 22.1 14.99 19.16 14.97 16.22 C14.96 14.69 14.95 13.16 14.94 11.58 C14.93 10.41 14.92 9.24 14.91 8.04 C14.25 8.04 13.59 8.04 12.91 8.04 C12.33 6.96 11.75 5.89 11.16 4.79 C8.78 0.82 6.77 -0.59 2.91 -2.96 C2.91 -3.62 2.91 -4.28 2.91 -4.96 C6.81 -6.92 11.72 -6.11 16.03 -6.09 C16.54 -6.09 16.54 -6.09 19.12 -6.1 C33.67 -6.08 33.67 -6.08 39.91 -2.96 C39.66 0.16 39.66 0.16 38.91 3.04 C38.25 3.04 37.59 3.04 36.91 3.04 C35.85 6.02 34.86 9.02 33.91 12.04 C33.25 13.36 32.59 14.68 31.91 16.04 C31.64 19.35 31.64 19.35 31.66 23.04 C31.65 24.25 31.65 25.47 31.64 26.72 C31.91 30.04 31.91 30.04 33.91 34.04 C46.92 39.24 58.96 40.16 71.91 34.04 C72.57 33.05 73.23 32.06 73.91 31.04 C74.73 30.87 74.73 30.87 78.91 30.04 C79.76 44.36 74.1 59.39 65.91 71.04 C65.25 71.04 64.59 71.04 63.91 71.04 C63.58 71.7 63.58 71.7 61.91 75.04 C58.21 81.04 58.21 81.04 55.91 81.04 C55.25 82.69 54.59 84.34 53.91 86.04 C53.36 87.24 52.81 88.45 52.25 89.7 C46.62 103.14 45.73 115.59 45.06 130.01 C44.43 142.16 41.36 153.41 37.91 165.04 C37.56 166.24 37.22 167.44 36.87 168.68 C34.8 175.77 32.15 182.4 28.91 189.04 C28.38 190.16 27.85 191.29 27.31 192.45 C23.56 200.28 19.29 207.21 13.91 214.04 C13.22 214.91 12.53 215.78 11.82 216.68 C8.5 220.77 5.66 223.66 0.91 226.04 C0.91 226.7 0.91 227.36 0.91 228.04 C-1.21 229.76 -1.21 229.76 -3.97 231.66 C-4.87 232.29 -5.78 232.92 -6.71 233.57 C-9.09 235.04 -9.09 235.04 -11.09 235.04 C-11.42 236.36 -11.75 237.68 -12.09 239.04 C-16.03 241.04 -16.03 241.04 -21.09 243.04 C-30.92 246.92 -30.92 246.92 -34.09 249.04 C-36.89 249.54 -39.69 250.05 -42.5 250.47 C-45.4 250.93 -48.29 251.49 -51.17 252.08 C-57.66 253.13 -63.79 253.34 -70.34 253.29 C-71.53 253.28 -72.72 253.27 -73.95 253.27 C-107.45 252.89 -107.45 252.89 -119.09 245.04 C-120.83 236.66 -117.11 225.73 -112.09 219.04 C-106.48 219.21 -101.05 221 -95.66 222.47 C-94.05 222.9 -92.44 223.34 -90.79 223.78 C-90.18 223.99 -90.18 223.99 -87.09 225.04 C-87.09 225.7 -87.09 226.36 -87.09 227.04 C-82.16 226.95 -77.22 226.84 -72.28 226.72 C-70.89 226.7 -69.51 226.68 -68.08 226.65 C-56.09 226.34 -47.08 223.94 -36.09 219.04 C-34.77 219.04 -33.45 219.04 -32.09 219.04 C-32.09 218.38 -32.09 217.72 -32.09 217.04 C-23.76 212.04 -23.76 212.04 -21.09 212.04 C-20.43 210.72 -19.77 209.4 -19.09 208.04 C-17.43 206.69 -15.77 205.36 -14.09 204.04 C-1.65 189.27 9.91 170.85 9.91 151.04 C9.25 151.37 8.59 151.7 7.91 152.04 C8.05 149.08 8.19 146.12 8.34 143.16 C8.42 141.51 8.51 139.87 8.59 138.17 C8.91 134.04 8.91 134.04 9.91 132.04 C10.14 127.99 10.33 123.96 10.47 119.91 C10.49 119.34 10.49 119.34 10.6 116.47 C10.71 113.66 10.81 110.85 10.91 108.04 C11.9 108.37 12.89 108.7 13.91 109.04 C10.19 97.28 4.69 88.63 -5.09 81.04 C-6.78 79.39 -8.45 77.72 -10.09 76.04 C-10.52 75.62 -10.52 75.62 -12.66 73.54 C-14.99 71.14 -17.02 68.65 -19.09 66.04 C-20.41 64.72 -21.73 63.4 -23.09 62.04 C-27.09 56.59 -27.09 56.59 -27.09 53.04 C-27.75 53.04 -28.41 53.04 -29.09 53.04 C-30.35 50.85 -31.5 48.61 -32.59 46.35 C-33.2 45.11 -33.81 43.86 -34.44 42.59 C-35.75 39.78 -36.94 36.91 -38.09 34.04 C-39.08 33.05 -40.07 32.06 -41.09 31.04 C-43.67 25.16 -44.89 19.31 -46.09 13.04 C-46.42 12.71 -46.75 12.38 -47.09 12.04 C-47.53 3.77 -46.78 -0.22 -40.84 -6.28 C-27.22 -13.98 -12.42 -7.01 0 0 Z " fill="#DC0000" transform="translate(127.09375,106.96484375)"/>
<path d="M0 0 C1.06 2.57 1.06 2.57 2 5.69 C3.02 9.03 4.06 12.14 5.52 15.32 C10.79 28.46 10.38 44.29 10.71 58.29 C10.91 66.82 10.91 66.82 12 69 C12.07 71.71 12.08 74.42 12.06 77.12 C12.05 78.59 12.04 80.06 12.04 81.57 C12.02 82.7 12.01 83.83 12 85 C7.98 85.25 3.96 85.48 -0.06 85.69 C-1.2 85.76 -2.33 85.83 -3.5 85.91 C-15.87 86.52 -15.87 86.52 -20 83 C-21.57 78.17 -22.15 73.28 -22.75 68.25 C-23.12 65.55 -23.49 62.84 -23.86 60.14 C-23.95 59.47 -23.95 59.47 -24.4 56.07 C-25.18 50.8 -26.22 45.6 -27.33 40.39 C-28.69 33.53 -29.11 27.07 -29.06 20.06 C-29.05 18.36 -29.04 16.66 -29.04 14.91 C-29.02 13.62 -29.01 12.33 -29 11 C-28.34 11 -27.68 11 -27 11 C-26.89 10.32 -26.89 10.32 -26.31 6.88 C-22.46 -7.42 -10.28 -6.86 0 0 Z " fill="#DA0000" transform="translate(133,12)"/>
<path d="M0 0 C5.5 10.58 5.4 21.72 2 33 C1.68 34.97 1.39 36.95 1.12 38.94 C0.28 44.25 -1.29 48.31 -4 53 C-4.6 54.11 -5.19 55.21 -5.8 56.35 C-12.95 68.23 -26.11 82 -41 82 C-41.02 76.11 -41.04 70.23 -41.05 64.34 C-41.06 61.37 -41.08 58.4 -41.09 55.43 C-41.12 38.39 -40.95 24.4 -33 9 C-32.34 7.35 -31.68 5.7 -31 4 C-23.19 -5.38 -9.99 -7.53 0 0 Z " fill="#DC0000" transform="translate(193,11)"/>
<path d="M0 0 C2.77 3.09 4.12 5.83 5.69 9.66 C5.93 10.25 5.93 10.25 7.17 13.21 C8.47 16.7 9.48 20.21 10.5 23.79 C10.83 24.12 11.16 24.45 11.5 24.79 C11.79 23.8 12.08 22.81 12.38 21.79 C16.47 8.61 22.28 -2.51 36.5 -6.21 C47.79 -7.22 54.3 -6.41 62.5 1.79 C62.17 2.45 61.84 3.11 61.5 3.79 C61.04 3.38 61.04 3.38 58.69 1.35 C53.39 -2.91 49.06 -2.41 42.38 -2.46 C40.56 -2.49 38.74 -2.52 36.87 -2.54 C36.15 -2.49 36.15 -2.49 32.5 -2.21 C32.17 -1.22 31.84 -0.23 31.5 0.79 C30.61 0.87 29.73 0.95 28.81 1.04 C21.33 2.73 18.63 9.93 16.37 16.66 C15.05 21.39 14.1 26.18 13.21 31.01 C12.5 33.79 12.5 33.79 10.5 34.79 C10.36 34.07 10.36 34.07 9.62 30.47 C8.5 25.79 8.5 25.79 6.5 22.79 C6.5 21.8 6.5 20.81 6.5 19.79 C6.04 19.76 6.04 19.76 3.69 19.66 C-0.68 18.46 -1.03 16.97 -2.5 12.79 C-2.57 12.17 -2.57 12.17 -2.94 9.04 C-3.5 5.79 -3.5 5.79 -7.5 3.79 C-11.5 1.79 -11.5 1.79 -12.5 -3.21 C-28.38 -0.54 -28.38 -0.54 -31.5 7.79 C-32.16 8.45 -32.82 9.11 -33.5 9.79 C-36.12 16.38 -35.8 23.05 -35.75 30.04 C-35.76 31.2 -35.77 32.36 -35.77 33.56 C-35.74 46.82 -32.53 59.36 -29.54 72.2 C-29.27 73.35 -29.01 74.5 -28.74 75.68 C-28.5 76.71 -28.26 77.74 -28.02 78.8 C-27.5 81.79 -27.5 81.79 -27.5 87.79 C-28.76 87.79 -30.03 87.79 -31.33 87.79 C-32.98 87.83 -34.62 87.87 -36.31 87.91 C-37.95 87.93 -39.58 87.96 -41.27 87.98 C-46.51 88.98 -46.76 89.96 -48.5 94.79 C-50.47 96.48 -52.47 98.15 -54.5 99.79 C-56.46 105.66 -56.25 111.29 -53.5 116.79 C-52.44 121.27 -51.5 125.77 -50.56 130.29 C-49.5 133.79 -49.5 133.79 -46.5 134.79 C-45.11 138.1 -43.79 141.43 -42.5 144.79 C-41.18 147.13 -39.85 149.46 -38.5 151.79 C-38.5 152.45 -38.5 153.11 -38.5 153.79 C-37.84 153.79 -37.18 153.79 -36.5 153.79 C-35.46 155.77 -34.47 157.77 -33.5 159.79 C-33 160.45 -33 160.45 -30.5 163.79 C-30.5 164.45 -30.5 165.11 -30.5 165.79 C-29.84 166.12 -29.84 166.12 -26.5 167.79 C-23.15 170.89 -20.35 174.23 -17.5 177.79 C-15.1 180.24 -12.65 182.64 -10.19 185.04 C4.5 200.06 4.5 200.06 4.5 209.79 C3.84 209.79 3.18 209.79 2.5 209.79 C2.44 211.42 2.38 213.06 2.32 214.75 C2.23 216.88 2.15 219.02 2.06 221.16 C2.02 222.24 1.98 223.32 1.94 224.43 C1.61 232.56 1.61 232.56 0.5 234.79 C0.27 237.66 0.09 240.53 -0.06 243.41 C-0.15 244.97 -0.23 246.53 -0.32 248.14 C-0.38 249.34 -0.44 250.54 -0.5 251.79 C0.16 251.13 0.82 250.47 1.5 249.79 C2.36 273.73 -14.17 299.31 -32.5 313.79 C-38.92 317.79 -38.92 317.79 -41.5 317.79 C-41.5 318.45 -41.5 319.11 -41.5 319.79 C-44.47 320.86 -47.48 321.86 -50.5 322.79 C-50.17 321.14 -49.84 319.49 -49.5 317.79 C-51.33 318.43 -53.17 319.08 -55.06 319.75 C-62.65 322.08 -69.67 322.4 -77.56 322.29 C-78.91 322.28 -80.25 322.27 -81.64 322.26 C-92.47 322.06 -103.14 321.16 -113.5 317.79 C-113.5 317.13 -113.5 316.47 -113.5 315.79 C-114.49 315.79 -115.48 315.79 -116.5 315.79 C-116.17 313.48 -115.84 311.17 -115.5 308.79 C-117.15 309.12 -118.8 309.45 -120.5 309.79 C-120.83 311.44 -121.16 313.09 -121.5 314.79 C-122.82 315.12 -124.14 315.45 -125.5 315.79 C-125.66 316.45 -125.66 316.45 -126.5 319.79 C-127.12 320.98 -127.74 322.18 -128.38 323.41 C-133.38 333.72 -135.28 344.37 -134.5 355.79 C-133.18 356.12 -131.86 356.45 -130.5 356.79 C-130.5 356.13 -130.5 355.47 -130.5 354.79 C-125.5 355.79 -125.5 355.79 -124.5 357.79 C-125.82 357.79 -127.14 357.79 -128.5 357.79 C-128.83 358.45 -129.16 359.11 -129.5 359.79 C-134.5 359.79 -134.5 359.79 -136.5 357.79 C-138.12 340.01 -133.62 321.42 -121.5 307.79 C-118.25 306.79 -118.25 306.79 -115.5 306.79 C-114.5 307.79 -114.5 307.79 -114.5 313.79 C-110.5 315.04 -110.5 315.04 -105.5 315.79 C-104.24 316.12 -102.98 316.45 -101.69 316.79 C-73.26 323.57 -48.76 317.75 -27.31 297.91 C-17.95 287.78 -12.12 275.95 -8.36 262.79 C-7.8 260.83 -7.18 258.88 -6.49 256.95 C-2.1 242.94 3.3 214.26 -5.94 201.29 C-7.41 199.74 -8.93 198.24 -10.5 196.79 C-12.01 195.04 -13.51 193.29 -15 191.54 C-17.71 188.58 -20.4 186 -23.44 183.35 C-43.46 165.79 -67.31 130.56 -63.5 102.79 C-59.92 93.17 -54.94 88.56 -45.5 84.79 C-42.9 84.65 -40.29 84.61 -37.69 84.66 C-37.01 84.67 -37.01 84.67 -33.61 84.71 C-32.58 84.74 -31.56 84.76 -30.5 84.79 C-31.29 80.28 -32.08 75.78 -32.88 71.29 C-33.1 70.02 -33.32 68.75 -33.55 67.44 C-34.66 61.15 -35.87 54.96 -37.5 48.79 C-41.01 32.01 -42.65 13.34 -30.5 -0.21 C-20.5 -8.32 -9.77 -8.66 0 0 Z " fill="#8D262C" transform="translate(136.5,6.21484375)"/>
<path d="M0 0 C-0.33 2.31 -0.66 4.62 -1 7 C-0.01 7 0.98 7 2 7 C2 7.66 2 8.32 2 9 C2.91 9.06 2.91 9.06 7.5 9.38 C11.02 9.61 14.06 10.02 17.45 11.02 C24.09 12.45 30.6 12.33 37.38 12.31 C38.73 12.33 40.09 12.34 41.49 12.36 C49.25 12.37 55.6 11.6 63 9 C63.99 9 64.98 9 66 9 C64.8 15.01 64.44 14.96 59 17 C50.64 19.42 42.56 19.23 33.94 19.12 C33.22 19.12 33.22 19.12 29.58 19.1 C26.05 19.07 22.53 19.04 19 19 C19 18.34 19 17.68 19 17 C18.07 16.9 17.14 16.79 16.19 16.69 C9.67 15.62 3.36 13.66 -3 11.88 C-6 12 -6 12 -7.75 14.81 C-8.16 16.19 -8.57 17.58 -9 19 C-9.54 20.63 -10.07 22.26 -10.62 23.94 C-11.82 28.34 -12.58 32.46 -13 37 C10.19 44.32 32.91 44.54 57 44 C57 44.33 57 44.66 57 45 C55.35 45.33 53.7 45.66 52 46 C51.34 46.99 50.68 47.98 50 49 C49.09 48.98 49.09 48.98 44.5 48.88 C39 50 39 50 37.87 52.91 C37.4 56.29 37.17 59.6 37 63 C32.92 67.08 20.86 62.31 16.1 61.14 C11.47 59.85 7.31 58.12 3 56 C-0.33 54.66 -3.66 53.33 -7 52 C-9 51 -9 51 -10 48 C-11.65 47.34 -13.3 46.68 -15 46 C-15 46.66 -15 47.32 -15 48 C-16.65 47.67 -18.3 47.34 -20 47 C-21.3 34.02 -17.69 17.81 -10 7 C-8.68 6.67 -7.36 6.34 -6 6 C-5.67 4.35 -5.34 2.7 -5 1 C-3 0 -3 0 0 0 Z " fill="#83141C" transform="translate(21,315)"/>
<path d="M0 0 C0.33 0 0.66 0 1 0 C0.2 28.76 0.2 28.76 -2 43 C-2.17 44.27 -2.33 45.55 -2.5 46.86 C-3 50 -3 50 -4 51 C-4.48 53.94 -4.97 56.88 -5.4 59.82 C-6.01 63.03 -6.92 65.93 -8 69 C-8.56 70.81 -9.11 72.63 -9.69 74.5 C-11.69 80.53 -14.37 86.06 -17.29 91.69 C-18.71 94.44 -20.03 97.25 -21.31 100.06 C-24.32 105.59 -27.88 110.3 -31.79 115.21 C-34 118 -34 118 -36 121 C-36.66 121 -37.32 121 -38 121 C-38.33 121.66 -38.33 121.66 -40 125 C-42.09 127.14 -44.24 129.22 -46.44 131.25 C-47.59 132.33 -48.74 133.41 -49.93 134.52 C-53 137 -53 137 -56 137 C-56 137.66 -56 138.32 -56 139 C-61.29 143 -61.29 143 -65 143 C-65 143.66 -65 144.32 -65 145 C-82.31 153.81 -99.58 158.73 -119 158 C-119.12 159.46 -119.25 160.93 -119.38 162.44 C-120 167 -120 167 -122 168 C-121.12 158.25 -121.12 158.25 -120 156 C-118.21 155.69 -116.41 155.38 -114.56 155.06 C-109 154 -109 154 -107 151 C-105.35 151 -103.7 151 -102 151 C-102 150.34 -102 149.68 -102 149 C-98.03 147.62 -94.14 146.85 -90 146.12 C-85.16 145.04 -82.19 143.56 -78 141 C-73.6 139.2 -69.68 137.94 -65 137 C-64.67 135.68 -64.34 134.36 -64 133 C-56.41 127.47 -56.41 127.47 -52 126 C-52 125.34 -52 124.68 -52 124 C-46.52 119 -46.52 119 -44 119 C-43.34 117.35 -42.68 115.7 -42 114 C-40.34 112 -38.67 110 -37 108 C-31.22 100.09 -26.81 92.01 -23 83 C-22.5 81.87 -21.99 80.74 -21.47 79.58 C-18.32 72.23 -16.2 65 -14.44 57.19 C-12.43 48.28 -10.61 40.61 -4 34 C-3.51 31.08 -3.51 31.08 -3.34 27.54 C-3.27 26.26 -3.2 24.99 -3.12 23.67 C-3.06 22.34 -3 21 -2.94 19.62 C-2.81 16.99 -2.67 14.36 -2.53 11.73 C-2.47 10.56 -2.42 9.39 -2.36 8.18 C-2 5 -2 5 0 0 Z " fill="#7E080F" transform="translate(180,209)"/>
<path d="M0 0 C3.95 4.33 3.01 8.43 2.94 14.12 C2.28 14.12 1.62 14.12 0.94 14.12 C0.69 14.93 0.44 15.73 0.19 16.56 C-3.42 26.84 -11.4 33.75 -19.06 41.12 C-20.38 42.44 -21.7 43.76 -23.06 45.12 C-28.92 46.59 -34.49 47.15 -40.19 44.88 C-44.45 38.62 -42.4 31.21 -40.31 24.5 C-38.06 20.12 -38.06 20.12 -34.06 18.12 C-33.4 16.47 -32.74 14.83 -32.06 13.12 C-26.63 7.12 -26.63 7.12 -24.06 7.12 C-23.73 6.14 -23.4 5.14 -23.06 4.12 C-16.17 -1.23 -8.34 -5.1 0 0 Z " fill="#DB0000" transform="translate(206.0625,93.875)"/>
<path d="M0 0 C2.77 3.09 4.12 5.83 5.69 9.66 C5.93 10.25 5.93 10.25 7.17 13.21 C8.47 16.7 9.48 20.21 10.5 23.79 C10.83 24.12 11.16 24.45 11.5 24.79 C11.79 23.8 12.08 22.81 12.38 21.79 C16.47 8.61 22.28 -2.51 36.5 -6.21 C47.79 -7.22 54.3 -6.41 62.5 1.79 C62.17 2.45 61.84 3.11 61.5 3.79 C60.57 2.98 59.64 2.18 58.69 1.35 C53.39 -2.91 49.06 -2.41 42.38 -2.46 C40.56 -2.49 38.74 -2.52 36.87 -2.54 C35.43 -2.43 33.98 -2.33 32.5 -2.21 C32.17 -1.22 31.84 -0.23 31.5 0.79 C30.61 0.87 29.73 0.95 28.81 1.04 C21.33 2.73 18.63 9.93 16.37 16.66 C15.05 21.39 14.1 26.18 13.21 31.01 C12.5 33.79 12.5 33.79 10.5 34.79 C10.21 33.36 9.92 31.94 9.62 30.47 C8.5 25.79 8.5 25.79 6.5 22.79 C6.5 21.8 6.5 20.81 6.5 19.79 C6.04 19.76 6.04 19.76 3.69 19.66 C-0.68 18.46 -1.03 16.97 -2.5 12.79 C-2.64 11.55 -2.79 10.31 -2.94 9.04 C-3.5 5.79 -3.5 5.79 -7.5 3.79 C-11.5 1.79 -11.5 1.79 -12.5 -3.21 C-28.38 -0.54 -28.38 -0.54 -31.5 7.79 C-32.16 8.45 -32.82 9.11 -33.5 9.79 C-36.12 16.38 -35.8 23.05 -35.75 30.04 C-35.76 31.2 -35.77 32.36 -35.77 33.56 C-35.75 43.22 -34.25 52.04 -31.94 61.41 C-30.02 69.58 -29.37 77.39 -29.5 85.79 C-29.95 85.8 -29.95 85.8 -32.21 85.9 C-39.79 86.31 -46.33 87.29 -53.5 89.79 C-48.58 84.87 -44.32 84.54 -37.69 84.66 C-36.34 84.68 -34.99 84.7 -33.61 84.71 C-32.58 84.74 -31.56 84.76 -30.5 84.79 C-31.29 80.28 -32.08 75.78 -32.88 71.29 C-32.99 70.65 -32.99 70.65 -33.55 67.44 C-34.66 61.15 -35.87 54.96 -37.5 48.79 C-41.01 32.01 -42.65 13.34 -30.5 -0.21 C-20.5 -8.32 -9.77 -8.66 0 0 Z " fill="#9E474C" transform="translate(136.5,6.21484375)"/>
<path d="M0 0 C1.78 7.11 -3.69 12.07 -8 17.44 C-17.95 30.24 -21.45 43.05 -22.06 59 C-22.17 61.56 -22.28 64.13 -22.41 66.69 C-22.45 67.81 -22.5 68.92 -22.54 70.07 C-23.16 74.03 -25.22 76.22 -28 79 C-28.66 80.32 -29.32 81.64 -30 83 C-30.08 78.41 -29.91 74.53 -29 70 C-28.85 66.86 -28.7 63.71 -28.56 60.57 C-27.78 44.8 -25.25 31.76 -17 18 C-16.34 18 -15.68 18 -15 18 C-14.34 16.68 -13.68 15.36 -13 14 C-9.31 8 -9.31 8 -7 8 C-7 7.34 -7 6.68 -7 6 C-4.71 3.95 -2.37 1.95 0 0 Z " fill="#7E070E" transform="translate(200,170)"/>
<path d="M0 0 C1.38 -0.03 2.76 -0.05 4.18 -0.08 C11.28 0.51 15.17 3.43 19.12 9.25 C22.71 18.63 22.14 31.52 20.12 41.25 C19.47 41.41 19.47 41.41 16.12 42.25 C14.38 46.81 14.38 46.81 13.12 51.25 C12 46.74 11.63 37.75 15.12 34.25 C15.64 26.35 15.93 19.38 12.12 12.25 C12.12 10.93 12.12 9.61 12.12 8.25 C10.81 7.92 9.49 7.59 8.12 7.25 C6.81 6.59 5.49 5.93 4.12 5.25 C-2 5.03 -7.84 5.18 -13.88 6.25 C-10.96 -1.05 -7.21 0.08 0 0 Z " fill="#7F030B" transform="translate(180.875,2.75)"/>
<path d="M0 0 C3.12 4.69 2.64 9.43 3 15 C1.74 15 0.47 15.01 -0.83 15.01 C-2.48 15.05 -4.12 15.09 -5.81 15.12 C-6.63 15.14 -6.63 15.14 -10.77 15.2 C-16.01 16.19 -16.26 17.17 -18 22 C-19.97 23.7 -21.97 25.37 -24 27 C-25.59 31.77 -24.96 36.64 -24.84 41.63 C-25 45 -25 45 -27 47 C-26.15 54.04 -24.54 58.95 -21 65 C-20.25 69.44 -20.25 69.44 -20 73 C-29.25 63.75 -34.86 42.98 -33 30 C-29.3 19.55 -23.66 15.39 -13 13 C-8.27 12.69 -3.75 12.81 1 13 C0.67 8.71 0.34 4.42 0 0 Z " fill="#A04F53" transform="translate(106,79)"/>
<path d="M0 0 C0 1.98 0 3.96 0 6 C4 7.25 4 7.25 9 8 C10.26 8.33 11.52 8.66 12.81 9 C31.83 13.54 50.94 13.37 68.59 4.21 C71 3 71 3 73 3 C73 3.66 73 4.32 73 5 C65.82 9 65.82 9 62 9 C62 9.66 62 10.32 62 11 C53.71 14.25 45.96 14.5 37.12 14.44 C35.77 14.43 34.41 14.43 33.01 14.42 C22.11 14.26 11.43 13.4 1 10 C1 9.34 1 8.68 1 8 C0.01 8 -0.98 8 -2 8 C-1.67 5.69 -1.34 3.38 -1 1 C-2.65 1.33 -4.3 1.66 -6 2 C-6.33 3.65 -6.66 5.3 -7 7 C-8.32 7.33 -9.64 7.66 -11 8 C-11.33 9.32 -11.66 10.64 -12 12 C-12.31 12.6 -12.31 12.6 -13.88 15.62 C-18.88 25.93 -20.78 36.59 -20 48 C-18.68 48.33 -17.36 48.66 -16 49 C-16 48.34 -16 47.68 -16 47 C-11 48 -11 48 -10 50 C-11.32 50 -12.64 50 -14 50 C-14.33 50.66 -14.66 51.32 -15 52 C-20 52 -20 52 -22 50 C-23.7 31.45 -18.67 14.59 -7 0 C-5 -1 -5 -1 0 0 Z " fill="#C99D9F" transform="translate(22,314)"/>
<path d="M0 0 C-1.2 6.01 -1.56 5.96 -7 8 C-15.36 10.42 -23.44 10.23 -32.06 10.12 C-33.5 10.12 -34.94 10.11 -36.42 10.1 C-39.95 10.07 -43.47 10.04 -47 10 C-47 9.34 -47 8.68 -47 8 C-49.31 7.67 -51.62 7.34 -54 7 C-53.01 6.67 -52.02 6.34 -51 6 C-50.67 5.01 -50.34 4.02 -50 3 C-46.65 2.71 -46.65 2.71 -42.16 2.81 C-40.54 2.84 -38.92 2.86 -37.25 2.88 C-33.83 2.96 -30.4 3.04 -26.98 3.12 C-17.6 3.25 -8.84 0 0 0 Z " fill="#7A050D" transform="translate(87,324)"/>
<path d="M0 0 C-0.33 2.31 -0.66 4.62 -1 7 C-0.01 7 0.98 7 2 7 C2 7.66 2 8.32 2 9 C2.91 9.06 2.91 9.06 7.5 9.38 C12.51 9.78 17.16 10.6 22 12 C18 13 18 13 16 13 C15.67 13.66 15.34 14.32 15 15 C4.06 14.53 4.06 14.53 -1 12 C-2.65 12 -4.3 12 -6 12 C-7.96 15.63 -9 19 -10 23 C-11.65 23.99 -13.3 24.98 -15 26 C-15.33 27.65 -15.66 29.3 -16 31 C-16.33 31 -16.66 31 -17 31 C-17.66 36.28 -18.32 41.56 -19 47 C-19.33 47 -19.66 47 -20 47 C-20.39 33.49 -18.03 18.3 -10 7 C-8.68 6.67 -7.36 6.34 -6 6 C-5.67 4.35 -5.34 2.7 -5 1 C-3 0 -3 0 0 0 Z " fill="#7E0E15" transform="translate(21,315)"/>
<path d="M0 0 C0.33 1.32 0.66 2.64 1 4 C-0.53 4.23 -2.05 4.45 -3.62 4.69 C-13.24 7.04 -15.25 10.8 -18 20 C-18.66 20 -19.32 20 -20 20 C-19.92 21.64 -19.83 23.27 -19.75 24.96 C-19.64 27.1 -19.54 29.24 -19.44 31.38 C-19.38 32.46 -19.33 33.54 -19.27 34.65 C-18.89 42.77 -18.89 42.77 -20 45 C-24 43 -24 43 -24.5 38.05 C-24.5 35.99 -24.48 33.93 -24.44 31.88 C-24.44 30.85 -24.45 29.83 -24.46 28.78 C-24.37 17.81 -20.53 11.21 -15 2 C-10.03 -0.04 -5.34 -0.55 0 0 Z " fill="#79020A" transform="translate(124,3)"/>
<path d="M0 0 C1.65 0 3.3 0 5 0 C5.16 18.38 5.08 35.25 0 53 C-1 49 -1 49 -1 43 C-1.33 43.17 -1.33 43.17 -3 44 C-2.86 41.04 -2.71 38.08 -2.56 35.12 C-2.48 33.48 -2.4 31.83 -2.32 30.13 C-2 26 -2 26 -1 24 C-0.76 19.96 -0.58 15.92 -0.44 11.88 C-0.39 10.74 -0.35 9.6 -0.31 8.43 C-0.2 5.62 -0.1 2.81 0 0 Z " fill="#850007" transform="translate(138,215)"/>
<path d="M0 0 C2 0 2 0 5 4 C5 4.66 5 5.32 5 6 C5.66 6 6.32 6 7 6 C11.44 19.31 7.76 38.95 7 53 C7.66 52.34 8.32 51.68 9 51 C9.08 55.59 8.91 59.47 8 64 C7.18 64.16 7.18 64.16 3 65 C2.67 64.34 2.34 63.68 2 63 C1.4 64.88 0.8 66.75 0.19 68.69 C-1.19 73.02 -2.61 76.01 -5 80 C-6.41 75.77 -4.82 74.03 -3 70 C-1.98 67.01 -0.97 64.01 0 61 C0.33 60.1 0.65 59.2 0.99 58.27 C4.68 46.33 5.32 33.61 5.5 21.19 C5.53 20.09 5.56 18.98 5.59 17.85 C5.6 10.93 4.51 7.23 0 2 C0 1.34 0 0.68 0 0 Z " fill="#A05054" transform="translate(129,205)"/>
<path d="M0 0 C0 0.66 0 1.32 0 2 C-17.31 10.81 -34.58 15.73 -54 15 C-54.12 16.46 -54.25 17.93 -54.38 19.44 C-55 24 -55 24 -57 25 C-56.12 15.25 -56.12 15.25 -55 13 C-53.21 12.69 -51.41 12.38 -49.56 12.06 C-44 11 -44 11 -42 8 C-37.14 6.66 -33.05 6 -28 6 C-28 6.99 -28 7.98 -28 9 C-19.41 7.5 -12.51 5.68 -5 1 C-2 0 -2 0 0 0 Z " fill="#831A21" transform="translate(115,352)"/>
<path d="M0 0 C4.21 12.62 1.98 32.47 -2 45 C-2.32 46.08 -2.65 47.17 -2.98 48.28 C-4.59 53.37 -6.21 58.43 -9 63 C-9.66 63 -10.32 63 -11 63 C-11.66 64.32 -12.32 65.64 -13 67 C-17.71 75 -17.71 75 -20 75 C-20.66 76.32 -21.32 77.64 -22 79 C-25 85 -28 91 -31 97 C-34.03 87.91 -22.71 75.86 -17.44 69.06 C-10.85 60.39 -6.81 51.53 -4 41 C-3.83 40.46 -3.83 40.46 -2.95 37.7 C-1.93 33.73 -1.7 30.23 -1.62 26.13 C-1.59 24.67 -1.55 23.21 -1.52 21.7 C-1.49 20.19 -1.46 18.68 -1.44 17.12 C-1.38 14.11 -1.31 11.09 -1.25 8.07 C-1.22 6.74 -1.2 5.4 -1.17 4.03 C-1 1 -1 1 0 0 Z " fill="#D2ADAF" transform="translate(213,112)"/>
<path d="M0 0 C-0.33 0.66 -0.66 1.32 -1 2 C-1.93 1.2 -2.86 0.39 -3.81 -0.44 C-9.11 -4.7 -13.44 -4.19 -20.12 -4.25 C-21.94 -4.28 -23.76 -4.3 -25.63 -4.33 C-27.07 -4.22 -28.52 -4.11 -30 -4 C-30.33 -3.01 -30.66 -2.02 -31 -1 C-31.89 -0.92 -32.77 -0.83 -33.69 -0.75 C-41.17 0.95 -43.87 8.14 -46.13 14.87 C-47.45 19.6 -48.4 24.4 -49.29 29.23 C-50 32 -50 32 -52 33 C-54.12 24.5 -54.12 24.5 -53 20 C-52.34 20.99 -51.68 21.98 -51 23 C-50.85 22.51 -50.85 22.51 -50.12 20 C-43.18 -2.35 -20.32 -20.32 0 0 Z " fill="#BA8284" transform="translate(199,8)"/>
<path d="M0 0 C0.33 0 0.66 0 1 0 C0.2 28.76 0.2 28.76 -2 43 C-2.16 44.27 -2.33 45.55 -2.5 46.86 C-3 50 -3 50 -4 51 C-4.48 53.94 -4.97 56.88 -5.4 59.82 C-6.01 63.03 -6.92 65.93 -8 69 C-8.33 70.05 -8.66 71.1 -9 72.18 C-9.33 73.21 -9.66 74.25 -10 75.31 C-10.33 76.36 -10.66 77.41 -11 78.49 C-12 81 -12 81 -14 82 C-13.05 76.36 -12.13 71.33 -10 66 C-9.29 63.2 -8.63 60.38 -8 57.56 C-7.67 56.1 -7.34 54.64 -7 53.13 C-4.53 40.48 -3.49 27.91 -2.79 15.06 C-2.71 13.84 -2.64 12.61 -2.56 11.34 C-2.5 10.24 -2.44 9.14 -2.38 8.01 C-2 5 -2 5 0 0 Z " fill="#CB9FA2" transform="translate(180,209)"/>
<path d="M0 0 C0.33 0 0.66 0 1 0 C1.05 1.34 1.1 2.68 1.15 4.07 C1.78 19.4 3.24 33.56 7.11 48.4 C8.89 55.62 9.12 62.6 9 70 C8.55 70.02 8.55 70.02 6.29 70.11 C-1.29 70.53 -7.83 71.5 -15 74 C-10.08 69.08 -5.82 68.76 0.81 68.88 C2.16 68.89 3.51 68.91 4.89 68.93 C5.92 68.95 6.94 68.98 8 69 C7.21 64.5 6.42 60 5.62 55.5 C5.4 54.23 5.18 52.96 4.95 51.66 C3.84 45.37 2.63 39.18 1 33 C-1.13 22.83 -3.35 10.04 0 0 Z " fill="#E0C3C5" transform="translate(98,22)"/>
<path d="M0 0 C2.91 11.62 -11.88 27.34 -19 36 C-19.66 36.99 -20.32 37.98 -21 39 C-21.66 39 -22.32 39 -23 39 C-23.66 40.32 -24.32 41.64 -25 43 C-27.09 45.14 -29.24 47.22 -31.44 49.25 C-32.59 50.33 -33.74 51.41 -34.93 52.52 C-38 55 -38 55 -41 55 C-41 55.66 -41 56.32 -41 57 C-46.4 61.2 -46.4 61.2 -50 60 C-49.19 59.4 -48.38 58.79 -47.55 58.17 C-46.48 57.37 -45.41 56.57 -44.31 55.75 C-43.26 54.96 -42.2 54.17 -41.11 53.36 C-39.12 51.85 -37.16 50.3 -35.23 48.7 C-33 47 -33 47 -31 47 C-30.67 46.01 -30.34 45.02 -30 44 C-29.34 44 -28.68 44 -28 44 C-27.67 43.01 -27.34 42.02 -27 41 C-26.34 41 -25.68 41 -25 41 C-24.34 39.68 -23.68 38.36 -23 37 C-20.68 33.99 -18.35 30.99 -16 28 C-15.67 27.34 -15.34 26.68 -15 26 C-14.34 26 -13.68 26 -13 26 C-12.67 24.68 -12.34 23.36 -12 22 C-11.37 21.23 -10.74 20.46 -10.1 19.66 C-7.75 16.68 -6.69 14.01 -5.44 10.44 C-3.94 6.2 -2.75 3.66 0 0 Z " fill="#D6B4B5" transform="translate(165,291)"/>
<path d="M0 0 C7.8 0.27 15.38 1.32 23 3 C23.33 3.66 23.66 4.32 24 5 C26.72 5.2 26.72 5.2 30.06 5.12 C32.02 5.08 33.98 5.04 36 5 C33.11 7.89 31.05 7.23 27.02 7.2 C25.63 7.19 24.24 7.18 22.8 7.18 C21.34 7.16 19.88 7.14 18.38 7.12 C16.91 7.12 15.44 7.11 13.92 7.1 C10.28 7.07 6.64 7.04 3 7 C3 6.34 3 5.68 3 5 C0.69 4.67 -1.62 4.34 -4 4 C-3.01 3.67 -2.02 3.34 -1 3 C-0.67 2.01 -0.34 1.02 0 0 Z " fill="#830007" transform="translate(37,327)"/>
<path d="M0 0 C2.58 3.87 3.05 7.45 4 12 C5.64 19.88 5.64 19.88 9 21 C10.19 24.56 10.19 24.56 11 28 C2.26 26.25 0.73 20.82 -2 13 C-3.44 6.44 -3.44 6.44 -1 4 C-0.67 2.68 -0.34 1.36 0 0 Z " fill="#81050C" transform="translate(81,120)"/>
<path d="M0 0 C7.02 4.68 6.19 14.41 5.81 22 C5.34 29.21 4.02 35.75 1.98 42.66 C1.14 45.53 0.49 48.45 -0.12 51.38 C-1 55 -1 55 -3 56 C-1.64 43.27 -1.64 43.27 1 38 C2.27 25.2 3.1 12.58 0 0 Z " fill="#CDA2A5" transform="translate(199,10)"/>
<path d="M0 0 C1.7 6.81 -0.61 13.52 -3 20 C-2.01 20.33 -1.02 20.66 0 21 C-0.22 25.45 -0.51 28.26 -3 32 C-3 31.34 -3 30.68 -3 30 C-4.32 30.99 -5.64 31.98 -7 33 C-7.66 33 -8.32 33 -9 33 C-9.08 34.07 -9.16 35.14 -9.25 36.25 C-10 40 -10 40 -14 44 C-12.63 39.69 -10.98 35.59 -9.19 31.44 C-5.86 23.24 -3.9 14.88 -1.98 6.26 C-1 2 -1 2 0 0 Z " fill="#910107" transform="translate(169,254)"/>
<path d="M0 0 C2 0 2 0 5 4 C5 4.66 5 5.32 5 6 C5.66 6 6.32 6 7 6 C11.32 18.97 9.05 42.9 3 55 C3.14 52.6 3.29 50.21 3.44 47.81 C3.48 47.15 3.48 47.15 3.68 43.77 C4 40 4 40 5 35 C5.2 30.7 5.32 26.43 5.38 22.12 C5.41 20.97 5.45 19.81 5.49 18.61 C5.56 11.44 4.94 7.59 0 2 C0 1.34 0 0.68 0 0 Z " fill="#CEA5A8" transform="translate(129,205)"/>
<path d="M0 0 C0 0.66 0 1.32 0 2 C-17.31 10.81 -34.58 15.73 -54 15 C-54.12 16.46 -54.25 17.93 -54.38 19.44 C-55 24 -55 24 -57 25 C-56.12 15.12 -56.12 15.12 -55 14 C-51.31 13.76 -47.63 13.58 -43.94 13.44 C-42.89 13.39 -41.85 13.35 -40.77 13.31 C-38.18 13.2 -35.59 13.1 -33 13 C-33 12.34 -33 11.68 -33 11 C-31.33 10.67 -31.33 10.67 -23 9 C-16.77 6.72 -10.91 4.01 -5 1 C-2 0 -2 0 0 0 Z " fill="#D7B6B8" transform="translate(115,352)"/>
<path d="M0 0 C1.38 4.13 0.1 6.13 -1.38 10.19 C-3.22 15.53 -4.71 20.32 -5 26 C-5.1 27.79 -5.21 29.59 -5.31 31.44 C-5.26 32.19 -5.26 32.19 -5 36 C-3.68 36.33 -2.36 36.66 -1 37 C-1 36.34 -1 35.68 -1 35 C4 36 4 36 5 38 C3.68 38 2.36 38 1 38 C0.67 38.66 0.34 39.32 0 40 C-5 40 -5 40 -7 38 C-8.27 24.06 -5.84 12.56 0 0 Z " fill="#D8B7B9" transform="translate(7,326)"/>
<path d="M0 0 C0.66 0.33 1.32 0.66 2 1 C-0.25 2.92 -2.49 4.84 -4.74 6.76 C-12.04 13.99 -13.42 24.48 -15.25 34.16 C-16 37 -16 37 -18 38 C-20.12 29.5 -20.12 29.5 -19 25 C-18.34 25.99 -17.68 26.98 -17 28 C-16.85 27.51 -16.85 27.51 -16.12 25 C-12.88 14.57 -9.21 6.49 0 0 Z " fill="#E0C6C7" transform="translate(165,3)"/>
<path d="M0 0 C0.9 3.59 1.96 9.04 -1 12 C-1.48 14.94 -1.97 17.88 -2.4 20.82 C-3.01 24.03 -3.92 26.93 -5 30 C-5.33 31.05 -5.66 32.1 -6 33.18 C-6.16 33.69 -6.16 33.69 -7 36.31 C-7.33 37.36 -7.66 38.41 -8 39.49 C-9 42 -9 42 -11 43 C-10.05 37.36 -9.13 32.33 -7 27 C-5.93 22.27 -4.97 17.52 -4 12.76 C-3.67 11.52 -3.34 10.28 -3 9 C-2.34 9 -1.68 9 -1 9 C-0.67 6.03 -0.34 3.06 0 0 Z " fill="#D4B1B3" transform="translate(177,248)"/>
<path d="M0 0 C0.66 0.33 1.32 0.66 2 1 C0.68 1.99 -0.64 2.98 -2 4 C-3.05 6.31 -4.06 8.64 -5 11 C-5.66 11.66 -6.32 12.32 -7 13 C-9.11 18.78 -9.39 24.32 -9.62 30.44 C-9.7 32.23 -9.77 34.02 -9.85 35.87 C-9.9 37.23 -9.95 38.6 -10 40 C-10.33 40 -10.66 40 -11 40 C-11.14 35.85 -11.23 31.71 -11.31 27.56 C-11.33 26.98 -11.33 26.98 -11.44 24.03 C-11.58 13.74 -8.96 5.97 0 0 Z " fill="#B5787B" transform="translate(110,3)"/>
</g>
<g transform="translate(175,273) scale(-1,1)">
<path d="M0 0 C1.15 -0.04 2.3 -0.07 3.48 -0.11 C3.94 -0.04 3.94 -0.04 6.25 0.31 C6.41 0.97 6.41 0.97 7.25 4.31 C5.6 4.97 3.95 5.63 2.25 6.31 C2 9.26 2 9.26 2.54 13.21 C2.73 14.74 2.93 16.27 3.13 17.86 C3.38 19.59 3.62 21.33 3.88 23.12 C4.25 26.02 4.62 28.92 4.99 31.82 C5.27 33.98 5.55 36.15 5.83 38.32 C7.69 52.48 9.3 66.67 10.93 80.86 C11.89 89.14 12.86 97.42 13.83 105.7 C14.03 107.38 14.23 109.06 14.43 110.8 C17.04 133.07 19.68 155.34 22.33 177.62 C22.42 178.37 22.42 178.37 22.88 182.21 C23.22 185.11 23.57 188.01 23.91 190.91 C24.94 199.53 25.88 208.15 26.66 216.8 C27.75 223.31 29.61 228.35 34.45 232.9 C35.27 233.68 36.09 234.47 36.93 235.28 C37.78 236.08 38.62 236.87 39.5 237.69 C55.39 252.67 62.28 268.15 68.25 289.06 C72.89 305.2 78 320.81 85.06 336.06 C89.58 345.84 93.22 354.36 87.25 364.31 C82.67 367.74 81.77 368.19 76.25 367.31 C69.24 363.81 63.44 359.19 58.25 353.31 C58.25 352.65 58.25 351.99 58.25 351.31 C57.59 351.31 56.93 351.31 56.25 351.31 C55.26 350.32 54.27 349.33 53.25 348.31 C53.58 349.45 53.91 350.58 54.25 351.75 C56.48 364.16 57.42 377.55 48.25 387.31 C43.67 389.6 38.51 388.93 34.06 386.75 C22.32 376.58 16.36 361.64 11.25 347.31 C11.21 348.38 11.18 349.44 11.14 350.54 C9.72 381.83 9.72 381.83 -2.75 389.31 C-8.86 390.54 -10.57 389.6 -15.75 386.31 C-30.1 366.14 -28.33 332.73 -25.75 309.31 C-26.94 310.06 -28.14 310.81 -29.37 311.58 C-30.96 312.56 -32.55 313.55 -34.19 314.56 C-35.75 315.54 -37.32 316.51 -38.93 317.52 C-50.77 324.39 -59.98 327.7 -72.75 321.31 C-72.75 320.65 -72.75 319.99 -72.75 319.31 C-73.41 319.31 -74.07 319.31 -74.75 319.31 C-78.94 310.94 -76.77 303.36 -72.75 295.31 C-67.26 287.1 -51.21 267.31 -40.75 267.31 C-38.52 262.86 -36.56 258.31 -34.56 253.75 C-26.31 235.4 -26.31 235.4 -20.04 229.97 C-16.99 226.43 -17.32 224.84 -17.79 220.25 C-17.86 219.49 -17.86 219.49 -18.21 215.66 C-18.39 213.89 -18.57 212.13 -18.75 210.31 C-18.92 208.23 -19.09 206.15 -19.26 204.07 C-19.83 196.84 -20.44 189.61 -21.06 182.38 C-21.12 181.72 -21.12 181.72 -21.4 178.41 C-22.75 162.54 -24.15 146.67 -25.69 130.81 C-27.37 113.42 -29 96.02 -30.58 78.62 C-30.86 75.61 -31.14 72.6 -31.41 69.6 C-31.81 65.35 -32.19 61.11 -32.58 56.86 C-32.7 55.6 -32.82 54.34 -32.94 53.04 C-33.67 44.78 -33.88 36.61 -33.75 28.31 C-35.73 28.31 -37.71 28.31 -39.75 28.31 C-41.2 22.5 -38.45 19.57 -34.75 15.31 C-24.71 6.31 -13.7 0.29 0 0 Z " fill="#DC0000" transform="translate(80.75,3.6875)"/>
<path d="M0 0 C1.15 -0.04 2.3 -0.07 3.48 -0.11 C3.94 -0.04 3.94 -0.04 6.25 0.31 C6.41 0.97 6.41 0.97 7.25 4.31 C5.6 4.97 3.95 5.63 2.25 6.31 C2 9.26 2 9.26 2.54 13.21 C2.73 14.74 2.93 16.27 3.13 17.86 C3.38 19.59 3.62 21.33 3.88 23.12 C4.25 26.02 4.62 28.92 4.99 31.82 C5.27 33.98 5.55 36.15 5.83 38.32 C7.69 52.48 9.3 66.67 10.93 80.86 C11.89 89.14 12.86 97.42 13.83 105.7 C14.03 107.38 14.23 109.06 14.43 110.8 C17.04 133.07 19.68 155.34 22.33 177.62 C22.42 178.37 22.42 178.37 22.88 182.21 C23.22 185.11 23.57 188.01 23.91 190.91 C24.94 199.53 25.88 208.15 26.66 216.8 C27.75 223.31 29.61 228.35 34.45 232.9 C35.27 233.68 36.09 234.47 36.93 235.28 C37.78 236.08 38.62 236.87 39.5 237.69 C55.39 252.67 62.28 268.15 68.25 289.06 C72.89 305.2 78 320.81 85.06 336.06 C89.58 345.84 93.22 354.36 87.25 364.31 C82.67 367.74 81.77 368.19 76.25 367.31 C69.24 363.81 63.44 359.19 58.25 353.31 C58.25 352.65 58.25 351.99 58.25 351.31 C57.59 351.31 56.93 351.31 56.25 351.31 C55.26 350.32 54.27 349.33 53.25 348.31 C53.58 349.45 53.91 350.58 54.25 351.75 C56.48 364.16 57.42 377.55 48.25 387.31 C43.67 389.6 38.51 388.93 34.06 386.75 C22.32 376.58 16.36 361.64 11.25 347.31 C11.21 348.38 11.18 349.44 11.14 350.54 C9.72 381.83 9.72 381.83 -2.75 389.31 C-8.86 390.54 -10.57 389.6 -15.75 386.31 C-30.1 366.14 -28.33 332.73 -25.75 309.31 C-26.94 310.06 -28.14 310.81 -29.37 311.58 C-30.96 312.56 -32.55 313.55 -34.19 314.56 C-35.75 315.54 -37.32 316.51 -38.93 317.52 C-50.77 324.39 -59.98 327.7 -72.75 321.31 C-72.75 320.65 -72.75 319.99 -72.75 319.31 C-73.41 319.31 -74.07 319.31 -74.75 319.31 C-78.94 310.94 -76.77 303.36 -72.75 295.31 C-67.26 287.1 -51.21 267.31 -40.75 267.31 C-38.52 262.86 -36.56 258.31 -34.56 253.75 C-26.31 235.4 -26.31 235.4 -20.04 229.97 C-16.99 226.43 -17.32 224.84 -17.79 220.25 C-17.86 219.49 -17.86 219.49 -18.21 215.66 C-18.39 213.89 -18.57 212.13 -18.75 210.31 C-18.92 208.23 -19.09 206.15 -19.26 204.07 C-19.83 196.84 -20.44 189.61 -21.06 182.38 C-21.12 181.72 -21.12 181.72 -21.4 178.41 C-22.75 162.54 -24.15 146.67 -25.69 130.81 C-27.37 113.42 -29 96.02 -30.58 78.62 C-30.86 75.61 -31.14 72.6 -31.41 69.6 C-31.81 65.35 -32.19 61.11 -32.58 56.86 C-32.7 55.6 -32.82 54.34 -32.94 53.04 C-33.67 44.78 -33.88 36.61 -33.75 28.31 C-35.73 28.31 -37.71 28.31 -39.75 28.31 C-41.2 22.5 -38.45 19.57 -34.75 15.31 C-24.71 6.31 -13.7 0.29 0 0 Z M-28.75 18.31 C-29.75 25.74 -28.68 33.47 -27.83 40.88 C-26.52 53 -25.76 65.16 -25 77.33 C-24.81 80.24 -24.62 83.15 -24.43 86.06 C-24.33 87.77 -24.22 89.48 -24.11 91.23 C-23.75 95.31 -23.75 95.31 -22.75 98.31 C-22.52 101.04 -22.34 103.77 -22.19 106.5 C-22.1 107.96 -22.02 109.42 -21.93 110.92 C-21.87 112.04 -21.81 113.16 -21.75 114.31 C-21.09 114.31 -20.43 114.31 -19.75 114.31 C-19.77 116.27 -19.79 118.23 -19.81 120.25 C-19.81 139.19 -19.81 139.19 -18.26 148.13 C-17.73 151.45 -17.46 154.71 -17.25 158.07 C-17.17 159.33 -17.09 160.6 -17 161.9 C-16.83 164.56 -16.67 167.21 -16.5 169.86 C-16.42 171.12 -16.34 172.39 -16.25 173.69 C-16.21 174.27 -16.21 174.27 -16.03 177.18 C-15.75 180.31 -15.75 180.31 -14.75 185.31 C-14.29 190.28 -14 195.27 -13.69 200.25 C-13.6 201.59 -13.51 202.93 -13.41 204.31 C-11.71 230.69 -11.71 230.69 -17.75 235.31 C-22.31 240.99 -25.35 246.43 -27.75 253.31 C-29.27 256.39 -30.84 259.44 -32.45 262.48 C-33.75 265.31 -33.75 265.31 -34.75 270.31 C-36.4 270.97 -38.05 271.63 -39.75 272.31 C-48.75 277.92 -48.75 277.92 -48.75 280.31 C-50.07 280.97 -51.39 281.63 -52.75 282.31 C-61.65 289.43 -69.39 296.58 -70.75 308.31 C-70.91 309.57 -71.08 310.83 -71.25 312.12 C-70.53 316.74 -68.95 317.47 -64.75 319.31 C-55.51 320.42 -47.35 317.91 -40.75 311.31 C-39.01 310.14 -37.23 309.02 -35.44 307.94 C-31.91 305.76 -28.98 303.65 -25.81 300.94 C-22.75 298.31 -22.75 298.31 -18.75 297.31 C-18.91 298.4 -19.07 299.48 -19.24 300.6 C-19.82 305.97 -19.91 311.28 -19.92 316.68 C-19.92 317.75 -19.92 318.83 -19.93 319.94 C-19.93 322.2 -19.94 324.46 -19.94 326.73 C-19.94 330.17 -19.96 333.61 -19.97 337.05 C-19.98 339.26 -19.98 341.47 -19.98 343.68 C-19.99 344.7 -19.99 345.71 -20 346.76 C-19.97 355.67 -18.36 363.85 -15.69 372.31 C-15.35 373.41 -15 374.5 -14.65 375.62 C-13.75 378.31 -13.75 378.31 -12.75 380.31 C-12.09 380.31 -11.43 380.31 -10.75 380.31 C-10.59 380.81 -10.59 380.81 -9.75 383.31 C-2.84 383.31 -2.84 383.31 0.25 378.31 C4.72 369.21 4.44 360.51 4.44 350.56 C4.44 349.87 4.44 349.87 4.44 346.37 C4.39 336.22 3.79 326.36 2.25 316.31 C7.25 317.31 7.25 317.31 8.98 320.85 C9.22 321.59 9.22 321.59 10.44 325.38 C10.93 326.85 11.41 328.33 11.92 329.85 C12.81 332.83 13.6 335.84 14.3 338.87 C14.46 339.44 14.46 339.44 15.25 342.31 C15.91 342.31 16.57 342.31 17.25 342.31 C17.25 344.29 17.25 346.27 17.25 348.31 C17.58 348.97 17.91 349.63 18.25 350.31 C18.91 350.31 19.57 350.31 20.25 350.31 C20.33 351.13 20.42 351.95 20.5 352.79 C21.43 357.17 23.18 360.69 25.19 364.69 C25.9 366.12 26.61 367.55 27.34 369.02 C29.25 372.31 29.25 372.31 31.25 372.31 C31.58 373.96 31.91 375.61 32.25 377.31 C35.25 380.31 35.25 380.31 37.25 380.31 C37.25 380.97 37.25 381.63 37.25 382.31 C41.27 382.71 43.52 382.79 46.95 380.54 C50.37 375.74 49.95 370.98 49.81 365.31 C49.8 364.19 49.79 363.06 49.77 361.91 C49.56 353.7 48.25 346.99 45.25 339.31 C44.9 337.79 44.55 336.26 44.19 334.69 C43.25 331.31 43.25 331.31 40.25 328.31 C37.28 321.43 34.78 314.37 32.25 307.31 C39.37 308.74 38.85 311.81 41.25 318.31 C42.56 320 43.89 321.67 45.25 323.31 C46.12 325.07 46.98 326.82 47.88 328.62 C48.27 329.4 48.27 329.4 50.25 333.31 C50.91 333.31 51.57 333.31 52.25 333.31 C52.58 334.63 52.91 335.95 53.25 337.31 C58.95 347.29 67.11 354.46 76.25 361.31 C82.25 361.31 82.25 361.31 84.25 358.31 C84.63 352.64 83.99 347.73 82.25 342.31 C81.59 342.31 80.93 342.31 80.25 342.31 C79.57 340.32 78.91 338.32 78.25 336.31 C77.85 335.56 77.85 335.56 75.81 331.75 C73.25 326.77 72.12 321.9 70.99 316.45 C70.25 313.31 70.25 313.31 68.38 308.69 C65.79 302.15 64.12 295.52 62.4 288.7 C58.16 272.51 51.54 256.98 39.25 245.31 C36.42 242.55 33.8 239.78 31.25 236.75 C28.25 233.31 28.25 233.31 25.5 231.56 C20.03 226.09 20.98 215.2 20.38 207.94 C19.75 200.58 18.8 193.48 17.31 186.25 C15.31 176.41 14.21 166.6 13.29 156.61 C12.77 151.05 12.18 145.57 11.22 140.07 C10.33 134.8 9.75 129.63 9.31 124.31 C8.55 115.47 7.69 106.64 6.75 97.81 C6.63 96.68 6.51 95.55 6.39 94.38 C5.78 88.71 5.08 83.06 4.22 77.42 C2.95 68.73 2.52 60.02 2.04 51.26 C1.59 43.79 0.68 36.67 -0.75 29.31 C-1.35 25.26 -1.86 21.19 -2.38 17.12 C-2.44 16.6 -2.44 16.6 -2.78 13.95 C-3.11 11.41 -3.43 8.86 -3.75 6.31 C-14.28 6.31 -21.48 11.04 -28.75 18.31 Z " fill="#7D0008" transform="translate(80.75,3.6875)"/>
</g>
</svg>
