<svg width="232" height="48" viewBox="0 0 232 48" fill="none" xmlns="http://www.w3.org/2000/svg">
<ellipse cx="16" cy="33" rx="12" ry="9" fill="#F2F2F2"/>
<path d="M15.7697 0.179688C15.7697 0.179688 0.179688 23.5797 0.179688 32.1897C0.179688 40.7997 7.15969 47.7797 15.7697 47.7797C24.3797 47.7797 31.3597 40.7997 31.3597 32.1897C31.3597 23.5797 15.7697 0.179688 15.7697 0.179688ZM26.2797 32.3397C25.2697 37.3097 20.8397 40.9197 15.7697 40.9197C10.6997 40.9197 6.26969 37.3097 5.25969 32.3397C5.14969 31.8197 5.47969 31.3097 6.00969 31.1997C6.52969 31.0897 7.03969 31.4297 7.14969 31.9497C7.97969 36.0197 11.6097 38.9797 15.7797 38.9797C19.9497 38.9797 23.5797 36.0197 24.4097 31.9497C24.5197 31.4297 25.0297 31.0897 25.5497 31.1997C26.0697 31.3097 26.4097 31.8197 26.2997 32.3397H26.2797Z" fill="#BB0A08"/>
<path d="M58.9516 19.7302C55.9416 19.7302 53.3916 21.0202 52.0816 24.1802V13.5502C52.0816 13.0802 51.7016 12.7002 51.2316 12.7002H43.4516C42.9816 12.7002 42.6016 13.0802 42.6016 13.5502V40.7902H51.9716V34.7902C51.9716 29.4402 52.7516 26.1502 54.6916 26.1502C55.7516 26.1502 55.9816 27.4402 55.9816 29.6702V40.7802H65.3416V27.5502C65.3416 22.6402 63.7116 19.7102 58.9616 19.7102L58.9516 19.7302Z" fill="#BB0A08"/>
<path d="M77.08 33.3905C82.82 32.9505 87.93 30.6505 87.93 25.8905C87.93 21.7605 84.02 19.7305 79.15 19.7305C72.08 19.7305 66.75 23.9805 66.75 31.3905C66.75 39.2805 72.75 41.5905 78.76 41.5905C82.08 41.5905 84.69 40.8505 86.68 39.5605C86.91 39.4105 87.04 39.1605 87.06 38.8905L87.27 34.7005C87.3 34.0605 86.64 33.6105 86.07 33.8905C84.44 34.6805 82.49 35.0305 80.88 35.0305C79 35.0305 77.8 34.5205 77.09 33.4005L77.08 33.3905ZM78.84 24.9205C79.42 24.9205 80.16 25.1105 80.16 26.2105C80.16 27.8105 78.57 28.7305 76.34 29.1305C76.46 26.3305 77.35 24.9205 78.84 24.9205Z" fill="#BB0A08"/>
<path d="M118.039 19.7302C114.959 19.7302 112.609 21.1602 111.409 24.8002C110.989 21.6002 108.989 19.7302 105.439 19.7302C102.279 19.7302 99.8994 21.2502 98.7294 25.1102L98.2794 21.2602C98.2294 20.8302 97.8694 20.5102 97.4394 20.5102H90.4594C89.9894 20.5102 89.6094 20.8902 89.6094 21.3602V40.7902H98.9794V34.7902C98.9794 29.4402 98.9794 26.1502 100.919 26.1502C101.969 26.1502 102.209 27.4402 102.209 29.6702V40.7802H111.569V34.7802C111.569 29.3402 111.569 26.1402 113.509 26.1402C114.579 26.1402 114.799 27.4302 114.799 29.6602V40.7702H124.169V27.5402C124.169 22.6302 122.529 19.7002 118.049 19.7002L118.039 19.7302Z" fill="#BB0A08"/>
<path d="M137.428 19.7305C130.368 19.7305 125.578 23.7905 125.578 30.8905C125.578 37.9905 130.368 41.5905 137.318 41.5905C144.268 41.5905 149.068 37.9505 149.068 30.8205C149.068 23.6905 144.698 19.7405 137.438 19.7405L137.428 19.7305ZM137.348 36.3805C135.838 36.3805 135.138 35.0905 135.138 30.6005C135.138 26.4705 135.678 24.9105 137.348 24.9105C139.018 24.9105 139.498 26.5505 139.498 30.6005C139.498 34.9705 138.998 36.3805 137.348 36.3805Z" fill="#BB0A08"/>
<path d="M161.77 37.8297C157.52 37.8297 155.53 35.1797 155.53 31.0897C155.53 26.2497 158.22 23.9097 162.12 23.9097C163.09 23.9097 164.11 24.0697 165.02 24.4097C165.55 24.6097 166.11 24.2197 166.16 23.6597L166.29 22.0797C166.32 21.7297 166.13 21.3797 165.81 21.2397C164.45 20.6697 162.7 20.4297 161.23 20.4297C155.11 20.4297 150.77 24.0997 150.77 31.0397C150.77 37.3997 154.4 41.3397 160.75 41.3397C162.48 41.3397 164.71 40.9397 166.24 39.9597C166.48 39.8097 166.61 39.5297 166.61 39.2497V37.8597C166.61 37.2397 165.97 36.8297 165.42 37.0897C164.36 37.5897 163.18 37.8297 161.77 37.8297Z" fill="#F2F2F2"/>
<path d="M170.759 12.2099C168.539 11.8099 166.649 13.8899 167.409 16.0699C167.699 16.9099 168.379 17.5899 169.219 17.8799C171.399 18.6299 173.489 16.7499 173.079 14.5299C172.869 13.3699 171.919 12.4199 170.759 12.2099ZM167.859 21.8299V40.7899H172.499V21.8299C172.499 21.3599 172.119 20.9799 171.649 20.9799H168.709C168.239 20.9799 167.859 21.3599 167.859 21.8299Z" fill="#F2F2F2"/>
<path d="M183.819 20.4297C177.769 20.4297 173.949 24.4397 173.949 30.9597C173.949 37.4797 177.769 41.3397 183.779 41.3397C189.789 41.3397 193.649 37.4797 193.649 30.9097C193.649 24.3397 189.979 20.4297 183.819 20.4297ZM183.819 38.4497C180.549 38.4497 178.709 35.9597 178.709 30.8397C178.709 25.7197 180.499 23.3097 183.819 23.3097C187.139 23.3097 188.889 25.9297 188.889 30.8397C188.889 35.7497 187.099 38.4497 183.819 38.4497Z" fill="#F2F2F2"/>
<path d="M207.18 20.4297C203.75 20.4297 201.13 22.3497 199.69 25.4897L199.43 21.7697C199.4 21.3197 199.03 20.9797 198.58 20.9797H195.94C195.47 20.9797 195.09 21.3597 195.09 21.8297V40.7897H199.73V32.0097C199.73 27.7297 202.15 23.8597 205.38 23.8597C207.77 23.8597 208.28 26.0097 208.28 29.5997V40.7997H212.92V27.8897C212.92 22.5797 210.97 20.4397 207.18 20.4397V20.4297Z" fill="#F2F2F2"/>
<path d="M219.009 32.3697C225.599 32.4497 231.649 30.3097 231.649 25.4697C231.649 22.0697 228.679 20.4297 224.819 20.4297C218.659 20.4297 214.129 24.7197 214.129 31.5397C214.129 38.3597 218.499 41.3397 224.099 41.3397C226.639 41.3397 229.109 40.7497 230.989 39.4097C231.209 39.2597 231.329 38.9997 231.339 38.7297L231.369 37.3897C231.379 36.7297 230.679 36.3297 230.089 36.6397C228.449 37.5097 226.619 37.8697 224.999 37.8697C221.309 37.8697 219.399 35.8697 218.999 32.3597L219.009 32.3697ZM224.619 23.2797C225.909 23.2797 227.589 23.6697 227.589 25.6197C227.589 28.6997 223.329 29.8397 218.949 29.9497C219.239 25.6497 221.579 23.2797 224.609 23.2797H224.619Z" fill="#F2F2F2"/>
</svg>
