<svg width="1266" height="136" viewBox="0 0 1266 136" fill="none" xmlns="http://www.w3.org/2000/svg">
<path d="M111.78 133.96H86.95V76.05H24.83V133.96H0V1.46997H24.83V58.46H86.95V1.46997H111.78V133.96Z" fill="#BB0A08"/>
<path d="M222.1 1.46997V21.08H163.37V57.82H209.64V76.79H163.37V114.27H222.1V133.97H138.54V1.46997H222.1Z" fill="#BB0A08"/>
<path d="M312.86 85.07C313.74 87.18 314.62 89.3 315.47 91.44C316.32 89.24 317.21 87.07 318.13 84.94C319.05 82.8 320.02 80.76 321.06 78.8L360.27 5.40997C360.76 4.48997 361.26 3.75997 361.78 3.20997C362.3 2.65997 362.88 2.25997 363.52 2.01997C364.16 1.77997 364.88 1.61997 365.67 1.55997C366.46 1.49997 367.41 1.46997 368.51 1.46997H387.11V133.96H365.39V48.38C365.39 46.79 365.44 45.05 365.53 43.16C365.62 41.27 365.76 39.34 365.94 37.39L325.9 112.52C324.98 114.23 323.79 115.56 322.33 116.51C320.86 117.46 319.15 117.93 317.2 117.93H313.81C311.85 117.93 310.14 117.46 308.68 116.51C307.21 115.56 306.02 114.24 305.11 112.52L264.52 37.11C264.76 39.13 264.93 41.1 265.02 43.02C265.11 44.94 265.16 46.73 265.16 48.38V133.96H243.44V1.46997H262.04C263.14 1.46997 264.09 1.49997 264.88 1.55997C265.67 1.61997 266.39 1.76997 267.03 2.01997C267.67 2.26997 268.27 2.65997 268.82 3.20997C269.37 3.75997 269.89 4.48997 270.38 5.40997L309.96 78.99C311 80.95 311.96 82.98 312.85 85.08L312.86 85.07Z" fill="#BB0A08"/>
<path d="M540.96 67.71C540.96 77.42 539.34 86.42 536.1 94.69C532.86 102.97 528.31 110.13 522.45 116.18C516.59 122.23 509.53 126.95 501.28 130.34C493.03 133.73 483.9 135.42 473.88 135.42C463.86 135.42 454.71 133.72 446.44 130.34C438.16 126.95 431.08 122.23 425.18 116.18C419.28 110.13 414.72 102.97 411.48 94.69C408.24 86.41 406.62 77.42 406.62 67.71C406.62 58 408.24 49 411.48 40.73C414.72 32.45 419.28 25.29 425.18 19.24C431.07 13.19 438.16 8.46999 446.44 5.07999C454.72 1.68999 463.86 -0.0100098 473.88 -0.0100098C483.9 -0.0100098 493.03 1.69999 501.28 5.11999C509.53 8.53999 516.58 13.26 522.45 19.28C528.31 25.3 532.86 32.44 536.1 40.72C539.34 49 540.96 57.99 540.96 67.7V67.71ZM515.67 67.71C515.67 60.44 514.71 53.92 512.78 48.15C510.86 42.38 508.09 37.48 504.49 33.44C500.89 29.41 496.5 26.32 491.34 24.19C486.18 22.05 480.36 20.98 473.89 20.98C467.42 20.98 461.58 22.05 456.39 24.19C451.2 26.33 446.78 29.41 443.15 33.44C439.52 37.47 436.72 42.37 434.77 48.15C432.81 53.92 431.84 60.44 431.84 67.71C431.84 74.98 432.82 81.5 434.77 87.27C436.72 93.04 439.52 97.93 443.15 101.93C446.78 105.93 451.2 109 456.39 111.14C461.58 113.28 467.41 114.35 473.89 114.35C480.37 114.35 486.18 113.28 491.34 111.14C496.5 109 500.88 105.93 504.49 101.93C508.09 97.93 510.86 93.04 512.78 87.27C514.7 81.5 515.67 74.98 515.67 67.71Z" fill="#BB0A08"/>
<path d="M660.44 112.15C661.05 112.15 661.57 112.36 662 112.79L665.67 116.73C662.98 119.6 660.05 122.18 656.87 124.47C653.69 126.76 650.23 128.72 646.47 130.33C642.71 131.95 638.59 133.2 634.1 134.09C629.61 134.98 624.68 135.42 619.3 135.42C610.32 135.42 602.09 133.85 594.61 130.7C587.13 127.55 580.71 123.1 575.37 117.32C570.02 111.55 565.85 104.57 562.86 96.3801C559.87 88.1901 558.37 79.0901 558.37 69.0801C558.37 59.0701 559.91 50.2701 563 42.1401C566.08 34.0201 570.42 27.0401 576.01 21.2001C581.6 15.3701 588.29 10.8501 596.08 7.64008C603.87 4.43008 612.47 2.83008 621.87 2.83008C626.57 2.83008 630.88 3.18008 634.79 3.88008C638.7 4.58008 642.35 5.59008 645.74 6.90008C649.13 8.21008 652.32 9.85008 655.31 11.8001C658.3 13.7601 661.24 16.0101 664.11 18.5801L661.27 22.7001C660.78 23.4301 660.02 23.8001 658.98 23.8001C658.43 23.8001 657.73 23.4801 656.87 22.8401C656.01 22.2001 654.93 21.4101 653.62 20.4601C652.31 19.5101 650.72 18.4801 648.85 17.3401C646.99 16.2101 644.77 15.1701 642.21 14.2201C639.64 13.2701 636.68 12.4801 633.32 11.8401C629.96 11.2001 626.14 10.8801 621.87 10.8801C613.99 10.8801 606.75 12.2401 600.16 14.9601C593.56 17.6801 587.88 21.5601 583.12 26.6001C578.36 31.6401 574.65 37.7501 571.99 44.9301C569.33 52.1101 568 60.1601 568 69.0701C568 77.9801 569.31 86.4201 571.94 93.6301C574.57 100.84 578.2 106.93 582.84 111.91C587.48 116.89 592.96 120.71 599.29 123.36C605.62 126.01 612.47 127.35 619.86 127.35C624.5 127.35 628.64 127.04 632.28 126.43C635.91 125.82 639.26 124.9 642.31 123.68C645.36 122.46 648.2 120.96 650.83 119.19C653.45 117.42 656.05 115.34 658.62 112.96C658.92 112.72 659.22 112.52 659.49 112.36C659.77 112.21 660.09 112.13 660.45 112.13L660.44 112.15Z" fill="#F2F2F2"/>
<path d="M707.99 133.96H698.55V4.31006H707.99V133.96Z" fill="#F2F2F2"/>
<path d="M865.59 69.0901C865.59 79.1101 864.09 88.1901 861.1 96.3501C858.11 104.5 853.89 111.47 848.46 117.24C843.02 123.01 836.52 127.47 828.94 130.62C821.36 133.77 812.97 135.34 803.74 135.34C794.51 135.34 786.3 133.77 778.73 130.62C771.16 127.48 764.65 123.02 759.21 117.24C753.77 111.47 749.54 104.5 746.52 96.3501C743.5 88.1901 741.98 79.1101 741.98 69.0901C741.98 59.0701 743.49 50.0801 746.52 41.9201C749.54 33.7601 753.77 26.8001 759.21 21.0301C764.65 15.2601 771.15 10.7801 778.73 7.6101C786.3 4.4301 794.64 2.8501 803.74 2.8501C812.84 2.8501 821.36 4.4201 828.94 7.5701C836.51 10.7201 843.02 15.1901 848.46 20.9901C853.9 26.7901 858.11 33.7701 861.1 41.9301C864.09 50.0801 865.59 59.1401 865.59 69.1001V69.0901ZM855.88 69.0901C855.88 60.0501 854.63 51.9301 852.12 44.7201C849.62 37.5101 846.09 31.4001 841.54 26.3901C836.99 21.3801 831.51 17.5501 825.09 14.8901C818.67 12.2301 811.56 10.9001 803.74 10.9001C795.92 10.9001 789 12.2301 782.62 14.8901C776.24 17.5501 770.74 21.3801 766.13 26.3901C761.52 31.4001 757.94 37.5101 755.41 44.7201C752.87 51.9301 751.61 60.0501 751.61 69.0901C751.61 78.1301 752.88 86.3301 755.41 93.5101C757.94 100.69 761.52 106.78 766.13 111.79C770.74 116.8 776.24 120.62 782.62 123.24C789 125.87 796.04 127.18 803.74 127.18C811.44 127.18 818.67 125.87 825.09 123.24C831.5 120.62 836.99 116.8 841.54 111.79C846.09 106.78 849.62 100.69 852.12 93.5101C854.62 86.3301 855.88 78.1901 855.88 69.0901Z" fill="#F2F2F2"/>
<path d="M902.69 4.63006C903.18 4.84006 903.7 5.32006 904.25 6.05006L988.18 118.38C988 116.55 987.9 114.78 987.9 113.07V4.31006H996.15V133.96H991.66C990.25 133.96 989.12 133.35 988.27 132.13L903.97 19.6101C904.15 21.4401 904.25 23.1801 904.25 24.8301V133.96H896.09V4.31006H900.67C901.52 4.31006 902.2 4.42006 902.69 4.63006Z" fill="#F2F2F2"/>
<path d="M1112.33 4.31006V12.1001H1044.07V64.5101H1100.88V72.1201H1044.07V126.18H1112.33V133.97H1034.63V4.31006H1112.33Z" fill="#F2F2F2"/>
<path d="M1265.49 91.03C1265.49 115.03 1246.03 134.49 1222.03 134.49C1198.03 134.49 1178.57 115.03 1178.57 91.03C1178.57 67.03 1222.03 1.78003 1222.03 1.78003C1222.03 1.78003 1265.49 67.03 1265.49 91.03Z" fill="#BB0A08"/>
<path d="M1222.03 115.42C1207.84 115.42 1195.47 105.34 1192.63 91.46C1192.32 89.96 1193.29 88.5 1194.79 88.19C1196.29 87.88 1197.75 88.85 1198.06 90.35C1200.38 101.67 1210.46 109.89 1222.03 109.89C1233.6 109.89 1243.69 101.67 1246 90.35C1246.31 88.85 1247.77 87.88 1249.27 88.19C1250.77 88.5 1251.73 89.96 1251.43 91.46C1248.59 105.35 1236.22 115.42 1222.03 115.42Z" fill="#F2F2F2"/>
</svg>
