<?xml version="1.0" encoding="UTF-8"?>
<svg id="Layer_2" data-name="Layer 2" xmlns="http://www.w3.org/2000/svg" viewBox="0 0 540.96 486.84">
  <defs>
    <style>
      .cls-1 {
        fill: #f2f2f2;
      }

      .cls-1, .cls-2, .cls-3 {
        stroke-width: 0px;
      }

      .cls-2 {
        fill: #262626;
      }

      .cls-3 {
        fill: #bb0a08;
      }
    </style>
  </defs>
  <g id="Logos">
    <g>
      <g>
        <g>
          <path class="cls-3" d="m118.17,329.73h-24.46v-57.05h-61.2v57.05H8.05v-130.52h24.46v56.14h61.2v-56.14h24.46v130.52Z"/>
          <path class="cls-3" d="m226.85,199.21v19.32h-57.86v36.2h45.58v18.68h-45.58v36.92h57.86v19.41h-82.32v-130.52h82.32Z"/>
          <path class="cls-3" d="m316.25,281.58c.87,2.08,1.73,4.17,2.57,6.27.84-2.17,1.72-4.3,2.62-6.41.9-2.11,1.86-4.12,2.89-6.05l38.63-72.3c.48-.9.98-1.62,1.49-2.17.51-.54,1.08-.93,1.72-1.17.63-.24,1.34-.39,2.12-.45.78-.06,1.71-.09,2.8-.09h18.32v130.52h-21.39v-84.31c0-1.56.04-3.28.14-5.14.09-1.86.23-3.76.41-5.69l-39.45,74.02c-.9,1.69-2.08,2.99-3.52,3.93-1.44.93-3.13,1.4-5.05,1.4h-3.34c-1.93,0-3.61-.47-5.05-1.4-1.44-.93-2.62-2.24-3.52-3.93l-39.99-74.29c.24,1.99.41,3.93.5,5.82.09,1.9.14,3.66.14,5.28v84.31h-21.39v-130.52h18.32c1.08,0,2.02.03,2.8.09.78.06,1.49.21,2.12.45.63.24,1.22.63,1.76,1.17s1.05,1.26,1.53,2.17l38.99,72.48c1.02,1.93,1.97,3.93,2.84,6Z"/>
          <path class="cls-3" d="m540.96,264.47c0,9.57-1.6,18.43-4.78,26.58-3.19,8.15-7.67,15.21-13.45,21.17-5.78,5.96-12.73,10.61-20.85,13.95-8.12,3.34-17.12,5.01-26.99,5.01s-18.88-1.67-27.03-5.01c-8.15-3.34-15.13-7.99-20.94-13.95-5.81-5.96-10.31-13.01-13.49-21.17-3.19-8.15-4.78-17.01-4.78-26.58s1.59-18.43,4.78-26.58c3.19-8.15,7.69-15.21,13.49-21.17,5.81-5.96,12.79-10.61,20.94-13.95,8.15-3.34,17.16-5.01,27.03-5.01s18.86,1.69,26.99,5.05c8.12,3.37,15.07,8.02,20.85,13.95,5.78,5.93,10.26,12.97,13.45,21.12,3.19,8.15,4.78,17.01,4.78,26.58Zm-24.91,0c0-7.16-.95-13.58-2.84-19.27-1.9-5.69-4.62-10.52-8.17-14.49-3.55-3.97-7.87-7.01-12.95-9.12-5.09-2.1-10.82-3.16-17.19-3.16s-12.13,1.05-17.24,3.16c-5.12,2.11-9.46,5.14-13.04,9.12-3.58,3.97-6.33,8.8-8.26,14.49-1.93,5.69-2.89,12.11-2.89,19.27s.96,13.58,2.89,19.27c1.93,5.69,4.68,10.5,8.26,14.44,3.58,3.94,7.93,6.97,13.04,9.07,5.11,2.11,10.86,3.16,17.24,3.16s12.11-1.05,17.19-3.16c5.08-2.11,9.4-5.13,12.95-9.07,3.55-3.94,6.27-8.76,8.17-14.44,1.9-5.69,2.84-12.11,2.84-19.27Z"/>
        </g>
        <g>
          <path class="cls-2" d="m97.08,464.71c.58,0,1.07.2,1.48.61l3.49,3.75c-2.56,2.73-5.35,5.18-8.37,7.36-3.02,2.18-6.32,4.04-9.89,5.58-3.57,1.54-7.49,2.73-11.76,3.57s-8.96,1.26-14.07,1.26c-8.54,0-16.37-1.49-23.49-4.49-7.12-2.99-13.22-7.23-18.3-12.72-5.08-5.49-9.05-12.13-11.9-19.91-2.85-7.79-4.27-16.44-4.27-25.97s1.47-17.89,4.4-25.62c2.93-7.73,7.06-14.36,12.37-19.91,5.32-5.55,11.68-9.85,19.08-12.9,7.41-3.05,15.59-4.58,24.53-4.58,4.47,0,8.57.34,12.29,1,3.72.67,7.19,1.63,10.41,2.88,3.22,1.25,6.26,2.8,9.11,4.66,2.85,1.86,5.64,4.01,8.37,6.45l-2.7,3.92c-.47.7-1.19,1.05-2.18,1.05-.52,0-1.19-.3-2-.91s-1.84-1.36-3.09-2.27c-1.25-.9-2.76-1.89-4.53-2.96-1.77-1.07-3.88-2.06-6.32-2.96-2.44-.9-5.26-1.66-8.45-2.27-3.2-.61-6.83-.91-10.89-.91-7.49,0-14.38,1.29-20.65,3.88-6.28,2.59-11.68,6.27-16.21,11.07-4.53,4.79-8.06,10.6-10.59,17.43-2.53,6.83-3.79,14.48-3.79,22.96s1.25,16.5,3.75,23.36c2.5,6.86,5.95,12.65,10.37,17.39,4.41,4.74,9.63,8.37,15.64,10.89,6.01,2.53,12.54,3.79,19.57,3.79,4.42,0,8.35-.29,11.81-.87,3.46-.58,6.64-1.45,9.54-2.61,2.9-1.16,5.61-2.58,8.11-4.27,2.5-1.68,4.97-3.66,7.41-5.93.29-.23.57-.42.83-.57.26-.14.57-.22.92-.22Z"/>
          <path class="cls-2" d="m142.31,485.45h-8.98v-123.32h8.98v123.32Z"/>
          <path class="cls-2" d="m292.21,423.75c0,9.53-1.42,18.17-4.27,25.93-2.85,7.76-6.86,14.38-12.03,19.87-5.17,5.49-11.36,9.73-18.56,12.72-7.21,2.99-15.19,4.49-23.97,4.49s-16.59-1.49-23.79-4.49c-7.2-2.99-13.39-7.23-18.56-12.72-5.17-5.49-9.19-12.11-12.07-19.87-2.88-7.76-4.31-16.4-4.31-25.93s1.44-18.08,4.31-25.84c2.88-7.76,6.9-14.38,12.07-19.87,5.17-5.49,11.36-9.75,18.56-12.77,7.2-3.02,15.13-4.53,23.79-4.53s16.76,1.5,23.97,4.49c7.2,2.99,13.39,7.25,18.56,12.77,5.17,5.52,9.18,12.16,12.03,19.91,2.85,7.76,4.27,16.37,4.27,25.84Zm-9.24,0c0-8.6-1.19-16.33-3.57-23.18-2.38-6.85-5.74-12.66-10.06-17.43-4.33-4.76-9.54-8.41-15.64-10.94s-12.87-3.79-20.31-3.79-14.02,1.26-20.09,3.79c-6.07,2.53-11.3,6.17-15.69,10.94-4.39,4.76-7.79,10.57-10.2,17.43-2.41,6.86-3.62,14.58-3.62,23.18s1.21,16.4,3.62,23.22c2.41,6.83,5.81,12.62,10.2,17.39,4.39,4.76,9.62,8.4,15.69,10.89,6.07,2.5,12.77,3.75,20.09,3.75s14.2-1.25,20.31-3.75c6.1-2.5,11.31-6.13,15.64-10.89,4.33-4.76,7.68-10.56,10.06-17.39,2.38-6.83,3.57-14.57,3.57-23.22Z"/>
          <path class="cls-2" d="m327.5,362.44c.46.2.96.65,1.48,1.35l79.83,106.84c-.17-1.74-.26-3.43-.26-5.05v-103.45h7.84v123.32h-4.27c-1.34,0-2.41-.58-3.22-1.74l-80.18-107.02c.17,1.74.26,3.4.26,4.97v103.79h-7.76v-123.32h4.36c.81,0,1.45.1,1.92.3Z"/>
          <path class="cls-2" d="m526.89,362.13v7.41h-64.93v49.85h54.03v7.23h-54.03v51.42h64.93v7.41h-73.9v-123.32h73.9Z"/>
        </g>
      </g>
      <g>
        <path class="cls-3" d="m302.06,89.25c0,24-19.46,43.46-43.46,43.46s-43.46-19.46-43.46-43.46S258.6,0,258.6,0c0,0,43.46,65.25,43.46,89.25Z"/>
        <path class="cls-1" d="m258.6,113.64c-14.19,0-26.56-10.08-29.4-23.96-.31-1.5.66-2.96,2.16-3.27,1.5-.31,2.96.66,3.27,2.16,2.32,11.32,12.4,19.54,23.97,19.54s21.66-8.22,23.97-19.54c.31-1.5,1.77-2.47,3.27-2.16,1.5.31,2.46,1.77,2.16,3.27-2.84,13.89-15.21,23.96-29.4,23.96Z"/>
      </g>
    </g>
  </g>
</svg>